<svg width="25" height="24" viewBox="0 0 25 24" fill="none" xmlns="http://www.w3.org/2000/svg">
<g id="Delete">
<path id="Vector" fill-rule="evenodd" clip-rule="evenodd" d="M16.9299 4.47795V4.70495C18.2289 4.82373 19.5226 4.99454 20.8079 5.21695C20.905 5.23376 20.9978 5.26952 21.081 5.32218C21.1642 5.37485 21.2363 5.4434 21.293 5.52391C21.3497 5.60441 21.3901 5.69531 21.4117 5.7914C21.4333 5.88749 21.4357 5.9869 21.4189 6.08395C21.4021 6.18099 21.3664 6.27378 21.3137 6.35701C21.261 6.44023 21.1925 6.51227 21.112 6.56901C21.0315 6.62575 20.9406 6.66607 20.8445 6.68768C20.7484 6.70929 20.649 6.71176 20.5519 6.69495L20.3429 6.65995L19.3379 19.7299C19.28 20.4835 18.9397 21.1875 18.3852 21.701C17.8307 22.2146 17.1027 22.4999 16.3469 22.4999H8.51394C7.75813 22.4999 7.03019 22.2146 6.47566 21.701C5.92114 21.1875 5.58088 20.4835 5.52294 19.7299L4.51694 6.65995L4.30794 6.69495C4.21089 6.71176 4.11148 6.70929 4.01539 6.68768C3.9193 6.66607 3.8284 6.62575 3.7479 6.56901C3.5853 6.45442 3.47489 6.27994 3.44094 6.08395C3.40699 5.88795 3.45229 5.6865 3.56688 5.52391C3.68146 5.36131 3.85594 5.2509 4.05194 5.21695C5.3372 4.99427 6.63092 4.82347 7.92994 4.70495V4.47795C7.92994 2.91395 9.14294 1.57795 10.7459 1.52695C11.8687 1.49102 12.9922 1.49102 14.1149 1.52695C15.7179 1.57795 16.9299 2.91395 16.9299 4.47795ZM10.7939 3.02595C11.8847 2.99106 12.9762 2.99106 14.0669 3.02595C14.8199 3.04995 15.4299 3.68395 15.4299 4.47795V4.59095C13.4318 4.46959 11.4281 4.46959 9.42994 4.59095V4.47795C9.42994 3.68395 10.0389 3.04995 10.7939 3.02595ZM10.4389 8.97095C10.4351 8.87246 10.412 8.77568 10.3708 8.68614C10.3295 8.59661 10.2711 8.51606 10.1988 8.44911C10.1264 8.38216 10.0416 8.33011 9.94916 8.29594C9.85671 8.26177 9.75843 8.24614 9.65994 8.24995C9.56145 8.25376 9.46467 8.27693 9.37513 8.31814C9.2856 8.35935 9.20505 8.41779 9.1381 8.49012C9.07115 8.56246 9.0191 8.64728 8.98493 8.73973C8.95076 8.83218 8.93513 8.93046 8.93894 9.02895L9.28594 18.0289C9.29363 18.2277 9.37997 18.4153 9.52597 18.5504C9.59826 18.6173 9.68302 18.6693 9.77541 18.7035C9.8678 18.7376 9.96601 18.7533 10.0644 18.7494C10.1629 18.7456 10.2596 18.7225 10.3491 18.6813C10.4385 18.6401 10.519 18.5817 10.5859 18.5094C10.6528 18.4371 10.7048 18.3524 10.739 18.26C10.7731 18.1676 10.7887 18.0694 10.7849 17.9709L10.4389 8.97095ZM15.9189 9.02895C15.9263 8.92857 15.9133 8.82773 15.8809 8.73246C15.8484 8.63719 15.7971 8.54942 15.73 8.47439C15.6629 8.39936 15.5814 8.3386 15.4904 8.29574C15.3993 8.25287 15.3005 8.22877 15.1999 8.22488C15.0994 8.22098 14.999 8.23737 14.9049 8.27307C14.8108 8.30877 14.7249 8.36304 14.6522 8.43266C14.5795 8.50227 14.5216 8.58581 14.4818 8.67829C14.4421 8.77077 14.4214 8.8703 14.4209 8.97095L14.0739 17.9709C14.0662 18.1699 14.1379 18.3637 14.2731 18.5098C14.4083 18.6559 14.596 18.7423 14.7949 18.7499C14.9939 18.7576 15.1877 18.686 15.3338 18.5508C15.4799 18.4156 15.5662 18.2279 15.5739 18.0289L15.9189 9.02895Z" fill="#FD5353"/>
</g>
</svg>
