<svg width="24" height="25" viewBox="0 0 24 25" fill="none" xmlns="http://www.w3.org/2000/svg">
<path d="M21.7212 13.4374C21.8568 11.7154 21.5305 9.98837 20.7762 8.43443C19.5275 9.62082 18.0515 10.542 16.4372 11.1424C16.567 12.7358 16.4951 14.3391 16.2232 15.9144C18.1877 15.4197 20.049 14.5811 21.7212 13.4374ZM14.6342 16.2354C14.9536 14.7084 15.0653 13.1453 14.9662 11.5884C14.0142 11.8154 13.0212 11.9354 12.0002 11.9354C10.9792 11.9354 9.98619 11.8154 9.03419 11.5884C8.93743 13.1453 9.04908 14.7081 9.36619 16.2354C11.112 16.503 12.8884 16.503 14.6342 16.2354ZM9.77219 17.8044C11.2524 17.9795 12.748 17.9795 14.2282 17.8044C13.7195 19.442 12.9685 20.9942 12.0002 22.4094C11.0319 20.9942 10.2809 19.442 9.77219 17.8044ZM7.77719 15.9154C7.50383 14.3396 7.43192 12.7354 7.56319 11.1414C5.94847 10.5411 4.47211 9.61995 3.22319 8.43343C2.469 9.98776 2.14313 11.7151 2.27919 13.4374C3.95133 14.5811 5.81271 15.4207 7.77719 15.9154ZM21.3562 15.4374C20.8513 17.1484 19.8874 18.6883 18.5691 19.8901C17.2507 21.0919 15.6284 21.9096 13.8782 22.2544C14.7547 20.7807 15.4237 19.193 15.8662 17.5364C17.7957 17.132 19.6487 16.4239 21.3562 15.4384V15.4374ZM2.64419 15.4374C4.32619 16.4084 6.17419 17.1254 8.13419 17.5364C8.57669 19.193 9.24567 20.7807 10.1222 22.2544C8.37208 21.9097 6.74983 21.0921 5.43153 19.8905C4.11323 18.6889 3.14924 17.1492 2.64419 15.4384V15.4374ZM13.8782 3.11543C16.3559 3.60243 18.5483 5.03126 19.9942 7.10143C18.9269 8.1798 17.6527 9.0315 16.2482 9.60543C15.8698 7.31324 15.0659 5.11206 13.8782 3.11543ZM12.0002 2.96143C13.4596 5.09352 14.4185 7.52779 14.8052 10.0824C13.9082 10.3124 12.9682 10.4354 12.0002 10.4354C11.0322 10.4354 10.0922 10.3134 9.19519 10.0824C9.58187 7.52778 10.5407 5.09351 12.0002 2.96143ZM10.1222 3.11543C8.93442 5.11205 8.13059 7.31324 7.75219 9.60543C6.34764 9.03152 5.0735 8.17983 4.00619 7.10143C5.45222 5.03156 7.64458 3.60209 10.1222 3.11543Z" fill="#091E42"/>
</svg>
