<svg width="210" height="210" viewBox="0 0 210 210" fill="none" xmlns="http://www.w3.org/2000/svg">
<circle cx="105" cy="105" r="105" fill="#F5F6F7"/>
<path d="M34.167 64.2709C34.167 60.044 35.8462 55.9902 38.835 53.0014C41.8239 50.0125 45.8776 48.3334 50.1045 48.3334H78.1262C81.8474 48.3344 85.4509 49.6375 88.312 52.0167L105.177 66.0417H145.73C147.822 66.0417 149.895 66.4539 151.829 67.2549C153.762 68.0558 155.519 69.2298 156.999 70.7097C158.479 72.1896 159.653 73.9466 160.454 75.8802C161.255 77.8138 161.667 79.8863 161.667 81.9792V87.3059H65.4895C61.9343 87.3059 58.4812 88.4946 55.6794 90.6829C52.8775 92.8713 50.8878 95.9336 50.0266 99.383L36.4054 153.925C36.4054 153.96 36.7099 152.713 36.4054 153.925C34.917 151.448 34.1333 148.612 34.1387 145.722L34.167 64.2709Z" fill="#C2C7D0"/>
<path d="M46.5271 157.268C46.397 157.79 46.3874 158.335 46.4992 158.861C46.611 159.387 46.8411 159.881 47.1723 160.305C47.5034 160.729 47.9268 161.072 48.4103 161.308C48.8937 161.544 49.4246 161.666 49.9626 161.667H150.829C153.594 161.667 156.28 160.742 158.46 159.041C160.639 157.339 162.187 154.957 162.857 152.274L175.345 102.337C175.476 101.814 175.487 101.269 175.375 100.741C175.264 100.214 175.034 99.7195 174.703 99.2947C174.372 98.8698 173.948 98.5261 173.464 98.2898C172.98 98.0535 172.448 97.9307 171.909 97.9308H65.4892C64.3041 97.9301 63.1527 98.3258 62.2183 99.0548C61.2839 99.7839 60.6202 100.804 60.3326 101.954L46.5271 157.268Z" fill="#C2C7D0"/>
</svg>
