<svg width="20" height="20" viewBox="0 0 20 20" fill="none" xmlns="http://www.w3.org/2000/svg">
<path id="Vector" fill-rule="evenodd" clip-rule="evenodd" d="M3.25022 7C3.25022 5.20979 3.96138 3.4929 5.22725 2.22703C6.49312 0.961159 8.21001 0.25 10.0002 0.25C11.7904 0.25 13.5073 0.961159 14.7732 2.22703C16.0391 3.4929 16.7502 5.20979 16.7502 7V7.75C16.7502 9.873 17.5502 11.807 18.8682 13.27C18.9503 13.361 19.0089 13.4707 19.0388 13.5896C19.0686 13.7084 19.0689 13.8328 19.0396 13.9518C19.0103 14.0708 18.9523 14.1808 18.8707 14.2722C18.789 14.3636 18.6862 14.4335 18.5712 14.476C17.0272 15.046 15.4112 15.466 13.7402 15.719C13.7778 16.2331 13.7091 16.7495 13.5381 17.2359C13.3672 17.7222 13.0979 18.1681 12.7469 18.5457C12.396 18.9233 11.9709 19.2245 11.4983 19.4304C11.0257 19.6364 10.5157 19.7427 10.0002 19.7427C9.4847 19.7427 8.97472 19.6364 8.50213 19.4304C8.02954 19.2245 7.60448 18.9233 7.25351 18.5457C6.90254 18.1681 6.63319 17.7222 6.46229 17.2359C6.29138 16.7495 6.22259 16.2331 6.26022 15.719C4.61187 15.4692 2.99321 15.0524 1.42922 14.475C1.31435 14.4326 1.21161 14.3627 1.12998 14.2715C1.04834 14.1802 0.990294 14.0703 0.960898 13.9515C0.931503 13.8326 0.931657 13.7084 0.961346 13.5896C0.991035 13.4708 1.04936 13.3611 1.13122 13.27C2.49802 11.7567 3.2533 9.78919 3.25022 7.75V7ZM7.75222 15.9C7.73942 16.2032 7.7881 16.5058 7.8953 16.7897C8.00251 17.0736 8.16603 17.3329 8.37604 17.5519C8.58605 17.771 8.83819 17.9453 9.11731 18.0644C9.39643 18.1835 9.69676 18.2448 10.0002 18.2448C10.3037 18.2448 10.604 18.1835 10.8831 18.0644C11.1622 17.9453 11.4144 17.771 11.6244 17.5519C11.8344 17.3329 11.9979 17.0736 12.1051 16.7897C12.2123 16.5058 12.261 16.2032 12.2482 15.9C10.7526 16.0347 9.24786 16.0347 7.75222 15.9Z" fill="#0047B3"/>
</svg>
