<svg width="16" height="16" viewBox="0 0 16 16" fill="none" xmlns="http://www.w3.org/2000/svg">
<g id="Frame">
<path id="Vector" d="M4.6893 1.33301C4.82792 1.33301 4.9631 1.37623 5.07601 1.45664C5.18893 1.53706 5.27397 1.65067 5.3193 1.78167L7.1813 7.16101C7.23773 7.32774 7.22593 7.51003 7.14847 7.6681C7.07101 7.82617 6.93417 7.94719 6.76782 8.00475C6.60147 8.06231 6.41911 8.05175 6.26052 7.97536C6.10193 7.89897 5.97999 7.76296 5.9213 7.59701L5.64663 6.80367H3.7313L3.4573 7.59701C3.39861 7.76296 3.27667 7.89897 3.11808 7.97536C2.95949 8.05175 2.77712 8.06231 2.61077 8.00475C2.44442 7.94719 2.30759 7.82617 2.23013 7.6681C2.15267 7.51003 2.14087 7.32774 2.1973 7.16101L4.0593 1.78101C4.10474 1.65013 4.18983 1.53666 4.30273 1.45637C4.41564 1.37608 4.55076 1.33296 4.6893 1.33301ZM4.6893 4.03767L4.1933 5.47101H5.1853L4.6893 4.03767ZM3.16596 8.66634C2.98915 8.66634 2.81958 8.73658 2.69456 8.8616C2.56954 8.98663 2.4993 9.1562 2.4993 9.33301C2.4993 9.50982 2.56954 9.67939 2.69456 9.80441C2.81958 9.92944 2.98915 9.99967 3.16596 9.99967H5.3333L2.6333 13.5997C2.55901 13.6987 2.51378 13.8165 2.50266 13.9398C2.49154 14.0631 2.51498 14.1871 2.57035 14.2978C2.62572 14.4086 2.71083 14.5017 2.81614 14.5668C2.92146 14.6319 3.04282 14.6663 3.16663 14.6663H6.66663C6.84344 14.6663 7.01301 14.5961 7.13804 14.4711C7.26306 14.3461 7.3333 14.1765 7.3333 13.9997C7.3333 13.8229 7.26306 13.6533 7.13804 13.5283C7.01301 13.4032 6.84344 13.333 6.66663 13.333H4.49996L7.19997 9.73301C7.27425 9.63396 7.31949 9.51619 7.3306 9.39288C7.34172 9.26957 7.31828 9.1456 7.26292 9.03487C7.20755 8.92413 7.12244 8.831 7.01712 8.76591C6.9118 8.70082 6.79044 8.66634 6.66663 8.66634H3.16596ZM8.1953 10.8617C8.32032 10.7367 8.48986 10.6665 8.66663 10.6665C8.84341 10.6665 9.01295 10.7367 9.13796 10.8617L10.666 12.3897V1.99967C10.666 1.82286 10.7362 1.65329 10.8612 1.52827C10.9863 1.40325 11.1558 1.33301 11.3326 1.33301C11.5094 1.33301 11.679 1.40325 11.804 1.52827C11.9291 1.65329 11.9993 1.82286 11.9993 1.99967V12.3903L13.5286 10.8617C13.6544 10.7402 13.8228 10.673 13.9976 10.6746C14.1724 10.6761 14.3396 10.7462 14.4632 10.8698C14.5868 10.9934 14.6569 11.1606 14.6584 11.3354C14.6599 11.5102 14.5927 11.6786 14.4713 11.8043L11.8046 14.471C11.6796 14.596 11.5101 14.6662 11.3333 14.6662C11.1565 14.6662 10.987 14.596 10.862 14.471L8.1953 11.8043C8.07032 11.6793 8.00011 11.5098 8.00011 11.333C8.00011 11.1562 8.07032 10.9867 8.1953 10.8617Z" fill="#091E42"/>
</g>
</svg>
