<svg width="24" height="19" viewBox="0 0 24 19" fill="none" xmlns="http://www.w3.org/2000/svg">
<path fill-rule="evenodd" clip-rule="evenodd" d="M15.22 6.26755C15.2912 6.08198 15.4331 5.93224 15.6146 5.85124C15.7961 5.77024 16.0024 5.7646 16.188 5.83555L22.13 8.11555C22.2221 8.15088 22.3062 8.20401 22.3777 8.2719C22.4492 8.33979 22.5066 8.4211 22.5466 8.51119C22.5867 8.60129 22.6085 8.69839 22.611 8.79694C22.6135 8.89549 22.5965 8.99357 22.561 9.08555L20.281 15.0266C20.2477 15.121 20.1957 15.2079 20.1283 15.2819C20.0608 15.356 19.9792 15.4158 19.8882 15.4578C19.7973 15.4998 19.6988 15.5232 19.5987 15.5265C19.4985 15.5298 19.3987 15.513 19.3052 15.4772C19.2117 15.4413 19.1262 15.387 19.054 15.3176C18.9818 15.2481 18.9242 15.1649 18.8847 15.0729C18.8451 14.9808 18.8244 14.8818 18.8238 14.7816C18.8232 14.6814 18.8426 14.5821 18.881 14.4896L20.511 10.2386L19.425 10.7216C17.0667 11.7671 15.1416 13.5947 13.975 15.8956C13.9213 16.0011 13.8434 16.0924 13.7476 16.1621C13.6518 16.2317 13.5409 16.2777 13.424 16.2962C13.307 16.3147 13.1873 16.3053 13.0747 16.2687C12.9621 16.2321 12.8597 16.1693 12.776 16.0856L9.00003 12.3096L2.78003 18.5296C2.71137 18.6032 2.62857 18.6623 2.53657 18.7033C2.44457 18.7443 2.34526 18.7664 2.24455 18.7681C2.14385 18.7699 2.04382 18.7514 1.95043 18.7137C1.85705 18.676 1.77221 18.6198 1.70099 18.5486C1.62977 18.4774 1.57363 18.3925 1.53591 18.2991C1.49819 18.2058 1.47966 18.1057 1.48144 18.005C1.48322 17.9043 1.50526 17.805 1.54625 17.713C1.58724 17.621 1.64634 17.5382 1.72003 17.4696L8.47003 10.7196C8.61066 10.5791 8.80128 10.5002 9.00003 10.5002C9.19878 10.5002 9.38941 10.5791 9.53003 10.7196L13.136 14.3246C14.4812 12.1292 16.4622 10.3948 18.816 9.35155L19.902 8.86755L15.651 7.23655C15.5589 7.20132 15.4746 7.14826 15.403 7.08041C15.3315 7.01257 15.2739 6.93126 15.2338 6.84116C15.1937 6.75106 15.1717 6.65393 15.1692 6.55533C15.1667 6.45673 15.1836 6.3586 15.219 6.26655L15.22 6.26755Z" fill="#003E9C"/>
</svg>
