<svg width="25" height="24" viewBox="0 0 25 24" fill="none" xmlns="http://www.w3.org/2000/svg">
<path fill-rule="evenodd" clip-rule="evenodd" d="M12.4584 7.72032C12.599 7.57987 12.7896 7.50098 12.9884 7.50098C13.1871 7.50098 13.3777 7.57987 13.5184 7.72032L21.0184 15.2203C21.0921 15.289 21.1512 15.3718 21.1922 15.4638C21.2331 15.5558 21.2552 15.6551 21.257 15.7558C21.2587 15.8565 21.2402 15.9565 21.2025 16.0499C21.1648 16.1433 21.1086 16.2281 21.0374 16.2994C20.9662 16.3706 20.8814 16.4267 20.788 16.4644C20.6946 16.5022 20.5946 16.5207 20.4938 16.5189C20.3931 16.5171 20.2938 16.4951 20.2018 16.4541C20.1098 16.4131 20.027 16.354 19.9584 16.2803L12.9884 9.31032L6.01837 16.2803C5.8762 16.4128 5.68815 16.4849 5.49385 16.4815C5.29955 16.4781 5.11416 16.3994 4.97675 16.2619C4.83934 16.1245 4.76063 15.9391 4.7572 15.7448C4.75377 15.5505 4.82589 15.3625 4.95837 15.2203L12.4584 7.72032Z" fill="#0047B3"/>
</svg>
