<svg width="13" height="13" viewBox="0 0 13 13" fill="none" xmlns="http://www.w3.org/2000/svg">
<path d="M8.53064 3.09519C8.62286 3.18744 8.67466 3.31253 8.67466 3.44296C8.67466 3.5734 8.62286 3.69849 8.53064 3.79073L5.43514 6.88624L8.53064 9.98175C8.62025 10.0745 8.66983 10.1988 8.66871 10.3277C8.66758 10.4567 8.61585 10.5801 8.52465 10.6713C8.43345 10.7625 8.31008 10.8142 8.1811 10.8154C8.05213 10.8165 7.92787 10.7669 7.8351 10.6773L4.39182 7.23401C4.29961 7.14177 4.2478 7.01667 4.2478 6.88624C4.2478 6.75581 4.29961 6.63071 4.39182 6.53847L7.8351 3.09519C7.92735 3.00298 8.05244 2.95117 8.18287 2.95117C8.31331 2.95117 8.4384 3.00298 8.53064 3.09519Z" fill="#091E42"/>
</svg>
