<svg width="24" height="24" viewBox="0 0 24 24" fill="none" xmlns="http://www.w3.org/2000/svg">
<path d="M5.22301 2.25C4.72601 2.25 4.24901 2.448 3.89801 2.8L2.59801 4.098C1.92624 4.76853 1.53372 5.66884 1.49962 6.61738C1.46551 7.56592 1.79237 8.4921 2.41425 9.20913C3.03614 9.92617 3.90679 10.3807 4.85062 10.4811C5.79445 10.5815 6.74122 10.3202 7.50001 9.75C8.12701 10.22 8.90601 10.5 9.75001 10.5C10.594 10.5 11.374 10.22 12 9.75C12.626 10.22 13.406 10.5 14.25 10.5C15.094 10.5 15.873 10.22 16.5 9.75C17.2588 10.3202 18.2056 10.5815 19.1494 10.4811C20.0932 10.3807 20.9639 9.92617 21.5858 9.20913C22.2076 8.4921 22.5345 7.56592 22.5004 6.61738C22.4663 5.66884 22.0738 4.76853 21.402 4.098L20.102 2.799C19.7505 2.44764 19.274 2.25017 18.777 2.25H5.22301Z" fill="#003E9C"/>
<path fill-rule="evenodd" clip-rule="evenodd" d="M3 20.2501V11.4951C4.42 12.1691 6.08 12.1681 7.5 11.4951C8.20313 11.8287 8.97178 12.0012 9.75 12.0001C10.554 12.0001 11.318 11.8181 12 11.4941C12.7031 11.828 13.4717 12.0009 14.25 12.0001C15.054 12.0001 15.817 11.8181 16.5 11.4941C17.92 12.1681 19.58 12.1691 21 11.4951V20.2501H21.75C21.9489 20.2501 22.1397 20.3292 22.2803 20.4698C22.421 20.6105 22.5 20.8012 22.5 21.0001C22.5 21.1991 22.421 21.3898 22.2803 21.5305C22.1397 21.6711 21.9489 21.7501 21.75 21.7501H2.25C2.05109 21.7501 1.86032 21.6711 1.71967 21.5305C1.57902 21.3898 1.5 21.1991 1.5 21.0001C1.5 20.8012 1.57902 20.6105 1.71967 20.4698C1.86032 20.3292 2.05109 20.2501 2.25 20.2501H3ZM6 14.2501C6 14.0512 6.07902 13.8605 6.21967 13.7198C6.36032 13.5792 6.55109 13.5001 6.75 13.5001H9.75C9.94891 13.5001 10.1397 13.5792 10.2803 13.7198C10.421 13.8605 10.5 14.0512 10.5 14.2501V17.2501C10.5 17.4491 10.421 17.6398 10.2803 17.7805C10.1397 17.9211 9.94891 18.0001 9.75 18.0001H6.75C6.55109 18.0001 6.36032 17.9211 6.21967 17.7805C6.07902 17.6398 6 17.4491 6 17.2501V14.2501ZM14.25 13.5001C14.0511 13.5001 13.8603 13.5792 13.7197 13.7198C13.579 13.8605 13.5 14.0512 13.5 14.2501V19.5001C13.5 19.9141 13.836 20.2501 14.25 20.2501H17.25C17.4489 20.2501 17.6397 20.1711 17.7803 20.0305C17.921 19.8898 18 19.6991 18 19.5001V14.2501C18 14.0512 17.921 13.8605 17.7803 13.7198C17.6397 13.5792 17.4489 13.5001 17.25 13.5001H14.25Z" fill="#003E9C"/>
</svg>
