<svg width="24" height="24" viewBox="0 0 24 24" fill="none" xmlns="http://www.w3.org/2000/svg">
<g clip-path="url(#clip0_3846_13718)">
<path d="M3 11.4C3 12.2837 3.71634 13 4.6 13H9.4C10.2837 13 11 12.2837 11 11.4V4.6C11 3.71634 10.2837 3 9.4 3H4.6C3.71634 3 3 3.71634 3 4.6V11.4ZM3 19.4C3 20.2837 3.71634 21 4.6 21H9.4C10.2837 21 11 20.2837 11 19.4V16.6C11 15.7163 10.2837 15 9.4 15H4.6C3.71634 15 3 15.7163 3 16.6V19.4ZM13 19.4C13 20.2837 13.7163 21 14.6 21H19.4C20.2837 21 21 20.2837 21 19.4V12.6C21 11.7163 20.2837 11 19.4 11H14.6C13.7163 11 13 11.7163 13 12.6V19.4ZM14.6 3C13.7163 3 13 3.71634 13 4.6V7.4C13 8.28366 13.7163 9 14.6 9H19.4C20.2837 9 21 8.28366 21 7.4V4.6C21 3.71634 20.2837 3 19.4 3H14.6Z" fill="#003E9C"/>
</g>
<defs>
<clipPath id="clip0_3846_13718">
<rect width="24" height="24" fill="white"/>
</clipPath>
</defs>
</svg>
