<svg width="24" height="25" viewBox="0 0 24 25" fill="none" xmlns="http://www.w3.org/2000/svg">
<g id="Delete">
<path id="Vector" fill-rule="evenodd" clip-rule="evenodd" d="M16.5 4.97795V5.20495C17.799 5.32373 19.0927 5.49454 20.378 5.71695C20.4751 5.73376 20.5678 5.76952 20.6511 5.82218C20.7343 5.87485 20.8063 5.9434 20.8631 6.02391C20.9198 6.10441 20.9601 6.19531 20.9817 6.2914C21.0033 6.38749 21.0058 6.4869 20.989 6.58395C20.9722 6.68099 20.9364 6.77378 20.8838 6.85701C20.8311 6.94023 20.7626 7.01227 20.682 7.06901C20.6015 7.12575 20.5106 7.16607 20.4146 7.18768C20.3185 7.20929 20.2191 7.21176 20.122 7.19495L19.913 7.15995L18.908 20.2299C18.8501 20.9835 18.5098 21.6875 17.9553 22.201C17.4008 22.7146 16.6728 22.9999 15.917 22.9999H8.08401C7.3282 22.9999 6.60026 22.7146 6.04573 22.201C5.4912 21.6875 5.15095 20.9835 5.09301 20.2299L4.08701 7.15995L3.87801 7.19495C3.78096 7.21176 3.68155 7.20929 3.58546 7.18768C3.48937 7.16607 3.39847 7.12575 3.31796 7.06901C3.15537 6.95442 3.04495 6.77994 3.01101 6.58395C2.97706 6.38795 3.02236 6.1865 3.13694 6.02391C3.25153 5.86131 3.42601 5.7509 3.62201 5.71695C4.90727 5.49427 6.20099 5.32347 7.50001 5.20495V4.97795C7.50001 3.41395 8.71301 2.07795 10.316 2.02695C11.4387 1.99102 12.5623 1.99102 13.685 2.02695C15.288 2.07795 16.5 3.41395 16.5 4.97795ZM10.364 3.52595C11.4547 3.49106 12.5463 3.49106 13.637 3.52595C14.39 3.54995 15 4.18395 15 4.97795V5.09095C13.0018 4.96959 10.9982 4.96959 9.00001 5.09095V4.97795C9.00001 4.18395 9.60901 3.54995 10.364 3.52595ZM10.009 9.47095C10.0052 9.37246 9.98203 9.27568 9.94082 9.18614C9.89961 9.09661 9.84117 9.01606 9.76883 8.94911C9.69649 8.88216 9.61168 8.83011 9.51923 8.79594C9.42678 8.76177 9.3285 8.74614 9.23001 8.74995C9.13152 8.75376 9.03474 8.77693 8.9452 8.81814C8.85567 8.85935 8.77512 8.91779 8.70817 8.99012C8.64122 9.06246 8.58917 9.14728 8.555 9.23973C8.52083 9.33218 8.5052 9.43046 8.50901 9.52895L8.85601 18.5289C8.8637 18.7277 8.95004 18.9153 9.09604 19.0504C9.16833 19.1173 9.25309 19.1693 9.34548 19.2035C9.43787 19.2376 9.53608 19.2533 9.63451 19.2494C9.73293 19.2456 9.82964 19.2225 9.91912 19.1813C10.0086 19.1401 10.0891 19.0817 10.156 19.0094C10.2229 18.9371 10.2749 18.8524 10.3091 18.76C10.3432 18.6676 10.3588 18.5694 10.355 18.4709L10.009 9.47095ZM15.489 9.52895C15.4963 9.42857 15.4834 9.32773 15.4509 9.23246C15.4185 9.13719 15.3672 9.04942 15.3001 8.97439C15.233 8.89936 15.1515 8.8386 15.0604 8.79574C14.9694 8.75287 14.8706 8.72877 14.77 8.72488C14.6694 8.72098 14.5691 8.73737 14.475 8.77307C14.3809 8.80877 14.2949 8.86304 14.2222 8.93266C14.1496 9.00227 14.0916 9.08581 14.0519 9.17829C14.0122 9.27077 13.9915 9.3703 13.991 9.47095L13.644 18.4709C13.6363 18.6699 13.708 18.8637 13.8432 19.0098C13.9784 19.1559 14.1661 19.2423 14.365 19.2499C14.5639 19.2576 14.7577 19.186 14.9038 19.0508C15.0499 18.9156 15.1363 18.7279 15.144 18.5289L15.489 9.52895Z" fill="#FD5353"/>
</g>
</svg>
