<svg width="241" height="241" viewBox="0 0 241 241" fill="none" xmlns="http://www.w3.org/2000/svg">
<g id="Empty Folder">
<path id="Vector" d="M20.5 63C20.5 57.0326 22.8705 51.3097 27.0901 47.0901C31.3097 42.8705 37.0326 40.5 43 40.5H82.56C87.8134 40.5014 92.9007 42.3411 96.94 45.7L120.75 65.5H178C180.955 65.5 183.881 66.082 186.61 67.2127C189.34 68.3434 191.821 70.0008 193.91 72.0901C195.999 74.1794 197.657 76.6598 198.787 79.3896C199.918 82.1194 200.5 85.0453 200.5 88V95.52H64.72C59.7009 95.52 54.8259 97.1982 50.8703 100.288C46.9148 103.377 44.1057 107.7 42.89 112.57L23.66 189.57C23.66 189.62 24.09 187.86 23.66 189.57C21.5588 186.073 20.4523 182.069 20.46 177.99L20.5 63Z" fill="#C2C7D0"/>
<path id="Vector_2" d="M37.9504 194.29C37.7666 195.026 37.7531 195.796 37.9109 196.538C38.0687 197.281 38.3937 197.979 38.8612 198.577C39.3286 199.176 39.9263 199.66 40.6089 199.993C41.2914 200.326 42.0409 200.499 42.8004 200.5H185.2C189.104 200.5 192.896 199.195 195.973 196.792C199.049 194.389 201.235 191.027 202.18 187.24L219.81 116.74C219.996 116.002 220.011 115.232 219.854 114.488C219.697 113.743 219.372 113.045 218.904 112.445C218.437 111.845 217.838 111.36 217.155 111.026C216.472 110.693 215.721 110.519 214.96 110.52H64.7204C63.0472 110.519 61.4218 111.077 60.1027 112.106C58.7835 113.136 57.8464 114.576 57.4404 116.2L37.9504 194.29Z" fill="#C2C7D0"/>
</g>
</svg>
