<svg width="24" height="24" viewBox="0 0 24 24" fill="none" xmlns="http://www.w3.org/2000/svg">
<path d="M14.754 10C15.72 10 16.504 10.784 16.504 11.75V16.499C16.504 17.6927 16.0298 18.8376 15.1857 19.6817C14.3416 20.5258 13.1967 21 12.003 21C10.8093 21 9.66441 20.5258 8.82031 19.6817C7.97621 18.8376 7.502 17.6927 7.502 16.499V11.75C7.502 10.784 8.285 10 9.252 10H14.754ZM7.131 10C6.781 10.422 6.556 10.95 6.511 11.53L6.501 11.75V16.499C6.501 17.346 6.693 18.148 7.035 18.864C6.44228 19.0226 5.82103 19.0427 5.21929 18.9228C4.61756 18.8029 4.05145 18.5463 3.56475 18.1727C3.07805 17.7991 2.68379 17.3185 2.41246 16.7682C2.14114 16.2179 2.00001 15.6126 2 14.999V11.75C2.00002 11.3108 2.16517 10.8877 2.46268 10.5646C2.76019 10.2415 3.1683 10.0421 3.606 10.006L3.75 10H7.131ZM16.875 10H20.25C21.216 10 22 10.784 22 11.75V15C22.0001 15.6132 21.8593 16.2182 21.5884 16.7682C21.3175 17.3183 20.9237 17.7987 20.4376 18.1724C19.9514 18.546 19.3858 18.8029 18.7846 18.9232C18.1833 19.0435 17.5625 19.0239 16.97 18.866C17.27 18.238 17.454 17.546 17.495 16.814L17.504 16.499V11.75C17.504 11.085 17.269 10.475 16.875 10ZM12 3C12.7956 3 13.5587 3.31607 14.1213 3.87868C14.6839 4.44129 15 5.20435 15 6C15 6.79565 14.6839 7.55871 14.1213 8.12132C13.5587 8.68393 12.7956 9 12 9C11.2044 9 10.4413 8.68393 9.87868 8.12132C9.31607 7.55871 9 6.79565 9 6C9 5.20435 9.31607 4.44129 9.87868 3.87868C10.4413 3.31607 11.2044 3 12 3ZM18.5 4C19.163 4 19.7989 4.26339 20.2678 4.73223C20.7366 5.20107 21 5.83696 21 6.5C21 7.16304 20.7366 7.79893 20.2678 8.26777C19.7989 8.73661 19.163 9 18.5 9C17.837 9 17.2011 8.73661 16.7322 8.26777C16.2634 7.79893 16 7.16304 16 6.5C16 5.83696 16.2634 5.20107 16.7322 4.73223C17.2011 4.26339 17.837 4 18.5 4ZM5.5 4C6.16304 4 6.79893 4.26339 7.26777 4.73223C7.73661 5.20107 8 5.83696 8 6.5C8 7.16304 7.73661 7.79893 7.26777 8.26777C6.79893 8.73661 6.16304 9 5.5 9C4.83696 9 4.20107 8.73661 3.73223 8.26777C3.26339 7.79893 3 7.16304 3 6.5C3 5.83696 3.26339 5.20107 3.73223 4.73223C4.20107 4.26339 4.83696 4 5.5 4Z" fill="#003E9C"/>
</svg>
