<svg width="24" height="24" viewBox="0 0 24 24" fill="none" xmlns="http://www.w3.org/2000/svg">
<path d="M13.75 2H10.25C9.69656 2.00002 9.16255 2.20401 8.75004 2.57297C8.33754 2.94194 8.07549 3.44999 8.014 4H6.25C5.65326 4 5.08097 4.23705 4.65901 4.65901C4.23705 5.08097 4 5.65326 4 6.25V19.75C4 20.3467 4.23705 20.919 4.65901 21.341C5.08097 21.7629 5.65326 22 6.25 22H17.75C18.0455 22 18.3381 21.9418 18.611 21.8287C18.884 21.7157 19.1321 21.5499 19.341 21.341C19.5499 21.1321 19.7157 20.884 19.8287 20.611C19.9418 20.3381 20 20.0455 20 19.75V6.25C20 5.95453 19.9418 5.66194 19.8287 5.38896C19.7157 5.11598 19.5499 4.86794 19.341 4.65901C19.1321 4.45008 18.884 4.28434 18.611 4.17127C18.3381 4.0582 18.0455 4 17.75 4H15.986C15.9245 3.44999 15.6625 2.94194 15.25 2.57297C14.8375 2.20401 14.3034 2.00002 13.75 2ZM10.25 3.5H13.75C13.9489 3.5 14.1397 3.57902 14.2803 3.71967C14.421 3.86032 14.5 4.05109 14.5 4.25C14.5 4.44891 14.421 4.63968 14.2803 4.78033C14.1397 4.92098 13.9489 5 13.75 5H10.25C10.0511 5 9.86032 4.92098 9.71967 4.78033C9.57902 4.63968 9.5 4.44891 9.5 4.25C9.5 4.05109 9.57902 3.86032 9.71967 3.71967C9.86032 3.57902 10.0511 3.5 10.25 3.5ZM12.5 10.25C12.5 10.0511 12.579 9.86032 12.7197 9.71967C12.8603 9.57902 13.0511 9.5 13.25 9.5H16.75C16.9489 9.5 17.1397 9.57902 17.2803 9.71967C17.421 9.86032 17.5 10.0511 17.5 10.25C17.5 10.4489 17.421 10.6397 17.2803 10.7803C17.1397 10.921 16.9489 11 16.75 11H13.25C13.0511 11 12.8603 10.921 12.7197 10.7803C12.579 10.6397 12.5 10.4489 12.5 10.25ZM13.25 15H16.75C16.9489 15 17.1397 15.079 17.2803 15.2197C17.421 15.3603 17.5 15.5511 17.5 15.75C17.5 15.9489 17.421 16.1397 17.2803 16.2803C17.1397 16.421 16.9489 16.5 16.75 16.5H13.25C13.0511 16.5 12.8603 16.421 12.7197 16.2803C12.579 16.1397 12.5 15.9489 12.5 15.75C12.5 15.5511 12.579 15.3603 12.7197 15.2197C12.8603 15.079 13.0511 15 13.25 15ZM10.78 9.78L8.78 11.78C8.63937 11.9205 8.44875 11.9993 8.25 11.9993C8.05125 11.9993 7.86063 11.9205 7.72 11.78L6.72 10.78C6.64631 10.7113 6.58721 10.6285 6.54622 10.5365C6.50523 10.4445 6.48319 10.3452 6.48141 10.2445C6.47963 10.1438 6.49816 10.0438 6.53588 9.9504C6.5736 9.85701 6.62974 9.77218 6.70096 9.70096C6.77218 9.62974 6.85701 9.5736 6.9504 9.53588C7.04379 9.49816 7.14382 9.47963 7.24452 9.48141C7.34523 9.48318 7.44454 9.50523 7.53654 9.54622C7.62854 9.58721 7.71134 9.64631 7.78 9.72L8.25 10.19L9.72 8.72C9.78866 8.64631 9.87146 8.58721 9.96346 8.54622C10.0555 8.50523 10.1548 8.48318 10.2555 8.48141C10.3562 8.47963 10.4562 8.49816 10.5496 8.53588C10.643 8.5736 10.7278 8.62974 10.799 8.70096C10.8703 8.77218 10.9264 8.85701 10.9641 8.9504C11.0018 9.04379 11.0204 9.14382 11.0186 9.24452C11.0168 9.34522 10.9948 9.44454 10.9538 9.53654C10.9128 9.62854 10.8537 9.71134 10.78 9.78ZM10.78 14.22C10.9205 14.3606 10.9993 14.5512 10.9993 14.75C10.9993 14.9488 10.9205 15.1394 10.78 15.28L8.78 17.28C8.63937 17.4205 8.44875 17.4993 8.25 17.4993C8.05125 17.4993 7.86063 17.4205 7.72 17.28L6.72 16.28C6.64631 16.2113 6.58721 16.1285 6.54622 16.0365C6.50523 15.9445 6.48319 15.8452 6.48141 15.7445C6.47963 15.6438 6.49816 15.5438 6.53588 15.4504C6.5736 15.357 6.62974 15.2722 6.70096 15.201C6.77218 15.1297 6.85701 15.0736 6.9504 15.0359C7.04379 14.9982 7.14382 14.9796 7.24452 14.9814C7.34523 14.9832 7.44454 15.0052 7.53654 15.0462C7.62854 15.0872 7.71134 15.1463 7.78 15.22L8.25 15.69L9.72 14.22C9.86063 14.0795 10.0512 14.0007 10.25 14.0007C10.4488 14.0007 10.6394 14.0795 10.78 14.22Z" fill="#003E9C"/>
</svg>
