<svg width="24" height="25" viewBox="0 0 24 25" fill="none" xmlns="http://www.w3.org/2000/svg">
<g id="Open eyes">
<path id="Vector" d="M12 15.5C12.7956 15.5 13.5587 15.1839 14.1213 14.6213C14.6839 14.0587 15 13.2956 15 12.5C15 11.7044 14.6839 10.9413 14.1213 10.3787C13.5587 9.81607 12.7956 9.5 12 9.5C11.2044 9.5 10.4413 9.81607 9.87868 10.3787C9.31607 10.9413 9 11.7044 9 12.5C9 13.2956 9.31607 14.0587 9.87868 14.6213C10.4413 15.1839 11.2044 15.5 12 15.5Z" fill="#091E42"/>
<path id="Vector_2" fill-rule="evenodd" clip-rule="evenodd" d="M1.32308 11.947C2.81108 7.476 7.02808 4.25 12.0011 4.25C16.9711 4.25 21.1861 7.473 22.6761 11.94C22.7961 12.302 22.7961 12.692 22.6761 13.053C21.1891 17.524 16.9711 20.75 11.9991 20.75C7.02908 20.75 2.81308 17.527 1.32408 13.06C1.20382 12.6987 1.20382 12.3083 1.32408 11.947H1.32308ZM17.2501 12.5C17.2501 13.8924 16.697 15.2277 15.7124 16.2123C14.7278 17.1969 13.3925 17.75 12.0001 17.75C10.6077 17.75 9.27233 17.1969 8.28777 16.2123C7.3032 15.2277 6.75008 13.8924 6.75008 12.5C6.75008 11.1076 7.3032 9.77225 8.28777 8.78769C9.27233 7.80312 10.6077 7.25 12.0001 7.25C13.3925 7.25 14.7278 7.80312 15.7124 8.78769C16.697 9.77225 17.2501 11.1076 17.2501 12.5Z" fill="#091E42"/>
</g>
</svg>
