<svg width="25" height="24" viewBox="0 0 25 24" fill="none" xmlns="http://www.w3.org/2000/svg">
<g id="Attach file">
<path id="Vector" d="M17.8301 12.6064L11.518 18.9186C10.8255 19.611 9.88637 20 8.90712 20C7.92787 20 6.98872 19.611 6.29629 18.9186C5.60385 18.2261 5.21484 17.287 5.21484 16.3077C5.21484 15.3285 5.60385 14.3893 6.29629 13.6969L15.2726 4.72061C15.5012 4.49207 15.7726 4.31081 16.0713 4.18716C16.37 4.06352 16.6902 3.99992 17.0134 4C17.3367 4.00008 17.6568 4.06383 17.9554 4.18761C18.2541 4.31139 18.5254 4.49278 18.754 4.72143C18.9825 4.95007 19.1638 5.22149 19.2874 5.52019C19.411 5.81889 19.4746 6.13902 19.4746 6.46229C19.4745 6.78557 19.4107 7.10566 19.287 7.4043C19.1632 7.70294 18.9818 7.97428 18.7531 8.20281L9.77029 17.1857C9.53725 17.4091 9.22577 17.5311 8.90297 17.5271C8.58018 17.523 8.27191 17.3922 8.04461 17.163C7.81731 16.9337 7.68918 16.6244 7.68783 16.3016C7.68648 15.9787 7.81202 15.6683 8.03739 15.4372L14.4455 9.02906M9.77767 17.1775L9.76947 17.1857" stroke="#091E42" stroke-width="1.5" stroke-linecap="round" stroke-linejoin="round"/>
</g>
</svg>
