<svg width="33" height="32" viewBox="0 0 33 32" fill="none" xmlns="http://www.w3.org/2000/svg">
<g id="symbol">
<path id="icon link" d="M17.7798 19.3123C17.7487 19.2815 17.7068 19.2643 17.6631 19.2643C17.6194 19.2643 17.5775 19.2815 17.5464 19.3123L15.1473 21.7116C14.0365 22.8225 12.1618 22.9402 10.9354 21.7116C9.70691 20.483 9.8246 18.6102 10.9354 17.4994L13.3345 15.1C13.3985 15.036 13.3985 14.9307 13.3345 14.8667L12.5128 14.0449C12.4817 14.0142 12.4398 13.9969 12.3961 13.9969C12.3524 13.9969 12.3105 14.0142 12.2795 14.0449L9.88034 16.4442C8.13364 18.1911 8.13364 21.0178 9.88034 22.7626C11.627 24.5074 14.4536 24.5095 16.1982 22.7626L18.5974 20.3633C18.6614 20.2993 18.6614 20.194 18.5974 20.13L17.7798 19.3123ZM23.119 9.52498C21.3723 7.77813 18.5457 7.77813 16.8011 9.52498L14.3999 11.9243C14.3692 11.9554 14.3519 11.9973 14.3519 12.041C14.3519 12.0847 14.3692 12.1266 14.3999 12.1576L15.2196 12.9774C15.2836 13.0414 15.3889 13.0414 15.4529 12.9774L17.852 10.578C18.9628 9.46716 20.8375 9.34947 22.0639 10.578C23.2924 11.8066 23.1747 13.6794 22.0639 14.7903L19.6648 17.1896C19.6341 17.2207 19.6168 17.2626 19.6168 17.3063C19.6168 17.35 19.6341 17.3919 19.6648 17.423L20.4865 18.2448C20.5505 18.3088 20.6558 18.3088 20.7198 18.2448L23.119 15.8454C24.8636 14.0986 24.8636 11.2718 23.119 9.52498ZM18.5251 13.2603C18.4941 13.2295 18.4521 13.2123 18.4084 13.2123C18.3648 13.2123 18.3228 13.2295 18.2918 13.2603L13.6153 17.935C13.5846 17.9661 13.5673 18.008 13.5673 18.0517C13.5673 18.0954 13.5846 18.1373 13.6153 18.1684L14.4329 18.986C14.4969 19.0501 14.6022 19.0501 14.6662 18.986L19.3406 14.3113C19.4046 14.2473 19.4046 14.1419 19.3406 14.0779L18.5251 13.2603Z" fill="#091E42"/>
</g>
</svg>
