<svg width="24" height="25" viewBox="0 0 24 25" fill="none" xmlns="http://www.w3.org/2000/svg">
<g id="Settings">
<path id="Vector" fill-rule="evenodd" clip-rule="evenodd" d="M11.0781 2.75C10.1611 2.75 9.37906 3.413 9.22806 4.317L9.05006 5.389C9.03006 5.509 8.93506 5.649 8.75306 5.737C8.41041 5.90171 8.08079 6.09226 7.76706 6.307C7.60106 6.422 7.43306 6.433 7.31706 6.39L6.30006 6.008C5.8843 5.85224 5.42675 5.84906 5.00887 5.99904C4.59099 6.14901 4.23989 6.44241 4.01806 6.827L3.09606 8.424C2.87415 8.80836 2.79577 9.25897 2.87487 9.69569C2.95398 10.1324 3.18543 10.5269 3.52806 10.809L4.36806 11.501C4.46306 11.579 4.53806 11.73 4.52206 11.931C4.49356 12.3101 4.49356 12.6909 4.52206 13.07C4.53706 13.27 4.46306 13.422 4.36906 13.5L3.52806 14.192C3.18543 14.4741 2.95398 14.8686 2.87487 15.3053C2.79577 15.742 2.87415 16.1926 3.09606 16.577L4.01806 18.174C4.24004 18.5584 4.59121 18.8516 5.00908 19.0014C5.42695 19.1512 5.88441 19.1478 6.30006 18.992L7.31906 18.61C7.43406 18.567 7.60206 18.579 7.76906 18.692C8.08106 18.906 8.41006 19.097 8.75406 19.262C8.93606 19.35 9.03106 19.49 9.05106 19.612L9.22906 20.683C9.38006 21.587 10.1621 22.25 11.0791 22.25H12.9231C13.8391 22.25 14.6221 21.587 14.7731 20.683L14.9511 19.611C14.9711 19.491 15.0651 19.351 15.2481 19.262C15.5921 19.097 15.9211 18.906 16.2331 18.692C16.4001 18.578 16.5681 18.567 16.6831 18.61L17.7031 18.992C18.1186 19.1472 18.5756 19.1501 18.9931 19.0002C19.4105 18.8502 19.7613 18.5571 19.9831 18.173L20.9061 16.576C21.128 16.1916 21.2063 15.741 21.1272 15.3043C21.0481 14.8676 20.8167 14.4731 20.4741 14.191L19.6341 13.499C19.5391 13.421 19.4641 13.27 19.4801 13.069C19.5085 12.6899 19.5085 12.3091 19.4801 11.93C19.4641 11.73 19.5391 11.578 19.6331 11.5L20.4731 10.808C21.1811 10.226 21.3641 9.218 20.9061 8.423L19.9841 6.826C19.7621 6.44159 19.4109 6.1484 18.993 5.99861C18.5752 5.84883 18.1177 5.85215 17.7021 6.008L16.6821 6.39C16.5681 6.433 16.4001 6.421 16.2331 6.307C15.9197 6.0923 15.5904 5.90175 15.2481 5.737C15.0651 5.65 14.9711 5.51 14.9511 5.389L14.7721 4.317C14.6991 3.87906 14.4732 3.48122 14.1344 3.19427C13.7956 2.90732 13.366 2.74989 12.9221 2.75H11.0791H11.0781ZM12.0001 16.25C12.9946 16.25 13.9484 15.8549 14.6517 15.1517C15.355 14.4484 15.7501 13.4946 15.7501 12.5C15.7501 11.5054 15.355 10.5516 14.6517 9.84835C13.9484 9.14509 12.9946 8.75 12.0001 8.75C11.0055 8.75 10.0517 9.14509 9.34841 9.84835C8.64514 10.5516 8.25006 11.5054 8.25006 12.5C8.25006 13.4946 8.64514 14.4484 9.34841 15.1517C10.0517 15.8549 11.0055 16.25 12.0001 16.25Z" fill="#003E9C"/>
</g>
</svg>
