<svg width="16" height="16" viewBox="0 0 16 16" fill="none" xmlns="http://www.w3.org/2000/svg">
<g id="Sort">
<path id="Vector" d="M4.19196 2.86163L1.52862 5.5283L1.47262 5.59163C1.37321 5.71998 1.32404 5.88019 1.33435 6.04221C1.34466 6.20423 1.41374 6.35692 1.52862 6.47163L1.59196 6.52697C1.72031 6.62638 1.88052 6.67555 2.04254 6.66524C2.20456 6.65493 2.35725 6.58585 2.47196 6.47097L3.99996 4.93963V12.6663L4.00462 12.7443C4.02358 12.9066 4.10147 13.0563 4.22351 13.1649C4.34555 13.2735 4.50323 13.3336 4.66662 13.3336L4.74462 13.329C4.90691 13.3098 5.05651 13.2318 5.16504 13.1096C5.27356 12.9875 5.33343 12.8297 5.33329 12.6663V4.9443L6.86196 6.47097L6.92529 6.52697C7.0593 6.63184 7.22835 6.68151 7.39779 6.66578C7.56723 6.65005 7.72425 6.57012 7.83666 6.44236C7.94908 6.3146 8.00838 6.1487 8.00242 5.97863C7.99647 5.80856 7.9257 5.64721 7.80462 5.52763L5.13396 2.86097L5.07129 2.80563C4.94294 2.70622 4.78273 2.65705 4.62071 2.66736C4.45869 2.67767 4.30667 2.74675 4.19196 2.86163ZM11.3333 2.6683L11.2553 2.67297C11.0931 2.69207 10.9436 2.77003 10.8351 2.89205C10.7266 3.01407 10.6666 3.17168 10.6666 3.33497V11.055L9.13796 9.5283L9.07462 9.4723C8.94057 9.36864 8.77206 9.31993 8.60337 9.33606C8.43469 9.35219 8.27847 9.43196 8.16648 9.55914C8.0545 9.68632 7.99515 9.85138 8.0005 10.0208C8.00585 10.1901 8.0755 10.3511 8.19529 10.471L10.8646 13.1376L10.9273 13.1936C11.0556 13.293 11.2159 13.3422 11.3779 13.3319C11.5399 13.3216 11.6926 13.2525 11.8073 13.1376L14.4713 10.471L14.5273 10.4076C14.6267 10.2793 14.6759 10.1191 14.6656 9.95705C14.6553 9.79503 14.5862 9.64234 14.4713 9.52763L14.408 9.4723C14.2796 9.37288 14.1194 9.32372 13.9574 9.33403C13.7954 9.34434 13.6427 9.41342 13.528 9.5283L12 11.0576V3.33497L11.9953 3.25763C11.9763 3.09534 11.8984 2.94567 11.7764 2.83702C11.6544 2.72838 11.4967 2.66834 11.3333 2.6683Z" fill="#091E42"/>
</g>
</svg>
