<svg width="24" height="25" viewBox="0 0 24 25" fill="none" xmlns="http://www.w3.org/2000/svg">
<path fill-rule="evenodd" clip-rule="evenodd" d="M15.2202 7.16721C15.2913 6.98163 15.4333 6.8319 15.6148 6.7509C15.7963 6.6699 16.0025 6.66426 16.1882 6.73521L22.1302 9.01521C22.2222 9.05054 22.3064 9.10367 22.3778 9.17156C22.4493 9.23945 22.5067 9.32076 22.5468 9.41085C22.5868 9.50094 22.6087 9.59804 22.6111 9.6966C22.6136 9.79515 22.5966 9.89323 22.5612 9.98521L20.2812 15.9262C20.2478 16.0207 20.1959 16.1075 20.1284 16.1816C20.0609 16.2557 19.9793 16.3155 19.8883 16.3575C19.7974 16.3995 19.6989 16.4228 19.5988 16.4262C19.4987 16.4295 19.3989 16.4127 19.3053 16.3768C19.2118 16.3409 19.1264 16.2867 19.0541 16.2172C18.9819 16.1478 18.9243 16.0646 18.8848 15.9725C18.8453 15.8805 18.8246 15.7814 18.8239 15.6812C18.8233 15.5811 18.8428 15.4818 18.8812 15.3892L20.5112 11.1382L19.4252 11.6212C17.0668 12.6668 15.1417 14.4944 13.9752 16.7952C13.9215 16.9008 13.8435 16.9921 13.7477 17.0617C13.652 17.1314 13.541 17.1773 13.4241 17.1959C13.3071 17.2144 13.1874 17.205 13.0748 17.1684C12.9622 17.1317 12.8599 17.069 12.7762 16.9852L9.00015 13.2092L2.78015 19.4292C2.71149 19.5029 2.62869 19.562 2.53669 19.603C2.44469 19.644 2.34538 19.666 2.24468 19.6678C2.14397 19.6696 2.04394 19.6511 1.95056 19.6133C1.85717 19.5756 1.77233 19.5195 1.70112 19.4482C1.6299 19.377 1.57375 19.2922 1.53603 19.1988C1.49831 19.1054 1.47979 19.0054 1.48156 18.9047C1.48334 18.804 1.50538 18.7047 1.54637 18.6127C1.58736 18.5207 1.64647 18.4379 1.72015 18.3692L8.47015 11.6192C8.61078 11.4788 8.8014 11.3999 9.00015 11.3999C9.1989 11.3999 9.38953 11.4788 9.53015 11.6192L13.1362 15.2242C14.4813 13.0289 16.4623 11.2945 18.8162 10.2512L19.9022 9.76721L15.6512 8.13621C15.559 8.10098 15.4748 8.04792 15.4032 7.98007C15.3316 7.91222 15.2741 7.83092 15.2339 7.74082C15.1938 7.65072 15.1719 7.55359 15.1693 7.45499C15.1668 7.35639 15.1837 7.25826 15.2192 7.16621L15.2202 7.16721Z" fill="#003E9C"/>
</svg>
