<svg width="25" height="25" viewBox="0 0 25 25" fill="none" xmlns="http://www.w3.org/2000/svg">
<g id="duplicate">
<path id="Vector" d="M8 4.04785C8 3.01185 8.84 2.17285 9.875 2.17285H10.25C11.2446 2.17285 12.1984 2.56794 12.9017 3.2712C13.6049 3.97446 14 4.92829 14 5.92285V7.79785C14 8.83385 14.84 9.67285 15.875 9.67285H17.75C18.7446 9.67285 19.6984 10.0679 20.4017 10.7712C21.1049 11.4745 21.5 12.4283 21.5 13.4229V16.7979C21.5 17.8329 20.66 18.6729 19.625 18.6729H9.875C9.37772 18.6729 8.9008 18.4753 8.54917 18.1237C8.19754 17.772 8 17.2951 8 16.7979V4.04785Z" fill="#001626"/>
<path id="Vector_2" d="M15.5 5.92277C15.5018 4.66132 15.0475 3.44173 14.221 2.48877C15.8943 2.92873 17.4207 3.80524 18.6441 5.02866C19.8675 6.25207 20.744 7.77848 21.184 9.45177C20.231 8.62525 19.0115 8.17102 17.75 8.17277H15.875C15.7755 8.17277 15.6802 8.13326 15.6098 8.06293C15.5395 7.99261 15.5 7.89723 15.5 7.79777V5.92277ZM5.375 6.67277H6.5V16.7978C6.5 17.6929 6.85558 18.5513 7.48851 19.1843C8.12145 19.8172 8.97989 20.1728 9.875 20.1728H17V21.2978C17 22.3328 16.16 23.1728 15.125 23.1728H5.375C4.87772 23.1728 4.40081 22.9752 4.04917 22.6236C3.69754 22.272 3.5 21.795 3.5 21.2978V8.54777C3.5 7.51177 4.34 6.67277 5.375 6.67277Z" fill="#001626"/>
</g>
</svg>
