<svg width="24" height="24" viewBox="0 0 24 24" fill="none" xmlns="http://www.w3.org/2000/svg">
<path d="M12.707 2.29303C12.5195 2.10556 12.2652 2.00024 12 2.00024C11.7348 2.00024 11.4805 2.10556 11.293 2.29303L6.293 7.29303C6.11084 7.48163 6.01005 7.73423 6.01233 7.99643C6.0146 8.25863 6.11977 8.50944 6.30518 8.69485C6.49059 8.88026 6.7414 8.98543 7.0036 8.9877C7.2658 8.98998 7.5184 8.88919 7.707 8.70703L11 5.41403V18C11 18.2652 11.1054 18.5196 11.2929 18.7071C11.4804 18.8947 11.7348 19 12 19C12.2652 19 12.5196 18.8947 12.7071 18.7071C12.8946 18.5196 13 18.2652 13 18V5.41403L16.293 8.70703C16.3852 8.80254 16.4956 8.87872 16.6176 8.93113C16.7396 8.98354 16.8708 9.01113 17.0036 9.01228C17.1364 9.01344 17.2681 8.98813 17.391 8.93785C17.5138 8.88757 17.6255 8.81332 17.7194 8.71943C17.8133 8.62553 17.8875 8.51388 17.9378 8.39098C17.9881 8.26809 18.0134 8.13641 18.0123 8.00363C18.0111 7.87085 17.9835 7.73963 17.9311 7.61763C17.8787 7.49562 17.8025 7.38528 17.707 7.29303L12.707 2.29303ZM5.25 20.5C5.05109 20.5 4.86032 20.579 4.71967 20.7197C4.57902 20.8604 4.5 21.0511 4.5 21.25C4.5 21.4489 4.57902 21.6397 4.71967 21.7804C4.86032 21.921 5.05109 22 5.25 22H18.75C18.9489 22 19.1397 21.921 19.2803 21.7804C19.421 21.6397 19.5 21.4489 19.5 21.25C19.5 21.0511 19.421 20.8604 19.2803 20.7197C19.1397 20.579 18.9489 20.5 18.75 20.5H5.25Z" fill="#091E42"/>
</svg>
