<svg width="24" height="21" viewBox="0 0 24 21" fill="none" xmlns="http://www.w3.org/2000/svg">
<g id="Google Meet" clip-path="url(#clip0_832_14946)">
<path id="Vector" d="M13.5771 10.4833L15.9169 13.1578L19.0633 15.1682L19.6106 10.5002L19.0633 5.9375L15.8566 7.70366L13.5771 10.4833Z" fill="#00832D"/>
<path id="Vector_2" d="M0 14.7338V18.7117C0 19.6199 0.73725 20.3573 1.64569 20.3573H5.6235L6.44719 17.3518L5.6235 14.7338L2.89444 13.9102L9.375e-05 14.7338H0Z" fill="#0066DA"/>
<path id="Vector_3" d="M5.6235 0.609375L0 6.23287L2.89462 7.05459L5.6235 6.23287L6.43219 3.65053L5.6235 0.609375Z" fill="#E94235"/>
<path id="Vector_4" d="M0 14.7357H5.62341V6.23291H0V14.7357Z" fill="#2684FC"/>
<path id="Vector_5" d="M22.6554 2.99047L19.063 5.9376V15.1682L22.6702 18.1268C23.2102 18.5498 24.0001 18.1643 24.0001 17.4778V3.62628C24.0001 2.93225 23.1914 2.54863 22.6553 2.99056" fill="#00AC47"/>
<path id="Vector_6" d="M13.5771 10.4834V14.7338H5.62354V20.3573H17.4177C18.3261 20.3573 19.0633 19.6199 19.0633 18.7116V15.1683L13.5771 10.4834Z" fill="#00AC47"/>
<path id="Vector_7" d="M17.4177 0.609375H5.62354V6.23287H13.5771V10.4833L19.0633 5.93738V2.25516C19.0633 1.34672 18.3261 0.609469 17.4177 0.609469" fill="#FFBA00"/>
</g>
<defs>
<clipPath id="clip0_832_14946">
<rect width="24" height="19.7812" fill="white" transform="translate(0 0.609375)"/>
</clipPath>
</defs>
</svg>
