<svg width="25" height="23" viewBox="0 0 25 23" fill="none" xmlns="http://www.w3.org/2000/svg">
<g id="Teams" clip-path="url(#clip0_832_14950)">
<path id="Vector" d="M16.9629 8.66895H23.1622C23.7479 8.66895 24.2227 9.14379 24.2227 9.72944V15.3761C24.2227 17.5286 22.4777 19.2737 20.3252 19.2737H20.3067C18.1542 19.2739 16.409 17.5293 16.4087 15.3767V9.22329C16.4087 9.1505 16.423 9.07841 16.4509 9.01116C16.4787 8.9439 16.5195 8.88279 16.571 8.83131C16.6225 8.77984 16.6836 8.739 16.7508 8.71114C16.8181 8.68328 16.8901 8.66895 16.9629 8.66895Z" fill="#5059C9"/>
<path id="Vector_2" d="M21.1528 7.55261C22.5399 7.55261 23.6644 6.4281 23.6644 5.04095C23.6644 3.6538 22.5399 2.5293 21.1528 2.5293C19.7656 2.5293 18.6411 3.6538 18.6411 5.04095C18.6411 6.4281 19.7656 7.55261 21.1528 7.55261Z" fill="#5059C9"/>
<path id="Vector_3" d="M13.3389 7.55275C15.3425 7.55275 16.9668 5.92847 16.9668 3.92481C16.9668 1.92116 15.3425 0.296875 13.3389 0.296875C11.3352 0.296875 9.71094 1.92116 9.71094 3.92481C9.71094 5.92847 11.3352 7.55275 13.3389 7.55275Z" fill="#7B83EB"/>
<path id="Vector_4" d="M18.1762 8.66895H7.94329C7.36457 8.68329 6.90679 9.16357 6.92019 9.74229V16.1826C6.83938 19.6555 9.58691 22.5375 13.0597 22.6225C16.5325 22.5375 19.28 19.6555 19.1993 16.1826V9.74229C19.2127 9.16357 18.7549 8.68329 18.1762 8.66895Z" fill="#7B83EB"/>
<path id="Vector_5" opacity="0.1" d="M13.618 8.66895V17.6941C13.6167 17.8965 13.5555 18.094 13.4423 18.2618C13.3291 18.4297 13.1689 18.5603 12.9817 18.6374C12.8598 18.6889 12.7289 18.7155 12.5966 18.7155H7.41137C7.3388 18.5313 7.27187 18.347 7.21599 18.1574C7.02062 17.5169 6.92095 16.8511 6.92021 16.1815V9.7406C6.9068 9.16282 7.36383 8.68329 7.94162 8.66904H13.6179L13.618 8.66895Z" fill="black"/>
<path id="Vector_6" opacity="0.2" d="M13.0596 8.66895V18.2523C13.0596 18.3845 13.0331 18.5155 12.9815 18.6374C12.9045 18.8246 12.7738 18.9848 12.606 19.098C12.4382 19.2112 12.2406 19.2723 12.0382 19.2737H7.67368C7.5788 19.0894 7.48946 18.9052 7.41137 18.7155C7.33634 18.5331 7.27113 18.3468 7.21599 18.1574C7.02062 17.5169 6.92095 16.8511 6.92021 16.1815V9.7406C6.9068 9.16282 7.36383 8.68329 7.94162 8.66904H13.0597L13.0596 8.66895Z" fill="black"/>
<path id="Vector_7" opacity="0.2" d="M13.0597 8.66895V17.136C13.0555 17.6983 12.6007 18.1532 12.0383 18.1574H7.21599C7.02062 17.5169 6.92095 16.8511 6.92021 16.1815V9.7406C6.9068 9.16282 7.36383 8.68329 7.94162 8.66904L13.0597 8.66895Z" fill="black"/>
<path id="Vector_8" opacity="0.2" d="M12.5016 8.66895V17.136C12.4973 17.6983 12.0425 18.1532 11.4802 18.1574H7.21599C7.02062 17.5169 6.92095 16.8511 6.92021 16.1815V9.7406C6.9068 9.16282 7.36383 8.68329 7.94162 8.66904L12.5016 8.66895Z" fill="black"/>
<path id="Vector_9" opacity="0.1" d="M13.6181 5.78361V7.54171C13.5232 7.54733 13.4338 7.55296 13.339 7.55296C13.2441 7.55296 13.1547 7.54733 13.0599 7.54171C12.8715 7.52922 12.6847 7.49934 12.5018 7.45246C11.9446 7.32051 11.4265 7.05854 10.99 6.68797C10.5534 6.31741 10.2108 5.84877 9.99012 5.32039C9.9131 5.14039 9.8533 4.95349 9.81152 4.76221H12.5966C13.1598 4.76436 13.6159 5.22036 13.6181 5.78361Z" fill="black"/>
<path id="Vector_10" opacity="0.2" d="M13.0599 6.34162V7.54163C12.8715 7.52914 12.6847 7.49926 12.5018 7.45237C11.9446 7.32041 11.4266 7.05843 10.9901 6.68787C10.5535 6.31731 10.2109 5.84868 9.99023 5.32031H12.0385C12.6017 5.32237 13.0577 5.77847 13.0599 6.34162Z" fill="black"/>
<path id="Vector_11" opacity="0.2" d="M13.0599 6.34162V7.54163C12.8715 7.52914 12.6847 7.49926 12.5018 7.45237C11.9446 7.32041 11.4266 7.05843 10.9901 6.68787C10.5535 6.31731 10.2109 5.84868 9.99023 5.32031H12.0385C12.6017 5.32237 13.0577 5.77847 13.0599 6.34162Z" fill="black"/>
<path id="Vector_12" opacity="0.2" d="M12.5019 6.34172V7.45247C11.9447 7.32051 11.4266 7.05852 10.9901 6.68794C10.5535 6.31736 10.2109 5.84871 9.99023 5.32031H11.4805C12.0437 5.32247 12.4997 5.77856 12.5019 6.34172Z" fill="black"/>
<path id="Vector_13" d="M1.24575 5.31992H11.4786C12.0437 5.31992 12.5018 5.77798 12.5018 6.34301V16.5759C12.5018 17.1409 12.0437 17.599 11.4787 17.599H1.24575C0.680719 17.599 0.222656 17.1409 0.222656 16.5759V6.34311C0.222656 5.77789 0.680719 5.31992 1.24575 5.31992Z" fill="url(#paint0_linear_832_14950)"/>
<path id="Vector_14" d="M9.05483 9.21484H7.0092V14.7851H5.70598V9.21484H3.66992V8.13428H9.05483V9.21484Z" fill="white"/>
</g>
<defs>
<linearGradient id="paint0_linear_832_14950" x1="213.535" y1="-74.6177" x2="1014.83" y2="1313.17" gradientUnits="userSpaceOnUse">
<stop stop-color="#5A62C3"/>
<stop offset="0.5" stop-color="#4D55BD"/>
<stop offset="1" stop-color="#3940AB"/>
</linearGradient>
<clipPath id="clip0_832_14950">
<rect width="24" height="22.4062" fill="white" transform="translate(0.222656 0.296875)"/>
</clipPath>
</defs>
</svg>
