<svg width="24" height="25" viewBox="0 0 24 25" fill="none" xmlns="http://www.w3.org/2000/svg">
<g id="Zoom">
<path id="Vector" d="M4.585 14.2895L4.315 14.2775H1.886L5.122 11.0405L5.109 10.7705C5.10417 10.5609 5.01875 10.3612 4.87051 10.2129C4.72226 10.0647 4.52259 9.97928 4.313 9.97445L4.043 9.96145H0L0.014 10.2315C0.048 10.6695 0.367 11.0015 0.808 11.0275L1.078 11.0405H3.508L0.268 14.2775L0.282 14.5465C0.297 14.9795 0.644 15.3265 1.077 15.3425L1.347 15.3555H5.393L5.379 15.0855C5.343 14.6425 5.029 14.3185 4.584 14.2905L4.585 14.2895ZM7.823 9.96145H7.819C7.10411 9.96185 6.41864 10.2463 5.91334 10.7522C5.40805 11.2581 5.1243 11.944 5.1245 12.6592C5.1247 13.3744 5.40883 14.0602 5.91441 14.5658C6.41998 15.0714 7.10561 15.3555 7.8205 15.3555C8.53539 15.3555 9.22102 15.0714 9.72659 14.5658C10.2322 14.0602 10.5163 13.3744 10.5165 12.6592C10.5167 11.944 10.233 11.2581 9.72766 10.7522C9.22236 10.2463 8.53789 9.96185 7.823 9.96145ZM8.964 13.8025C8.81555 13.9605 8.63685 14.0872 8.43851 14.1749C8.24018 14.2625 8.02625 14.3095 7.80942 14.3129C7.59259 14.3164 7.37728 14.2762 7.17627 14.1948C6.97527 14.1134 6.79266 13.9925 6.63928 13.8392C6.48591 13.6859 6.3649 13.5033 6.28343 13.3023C6.20196 13.1014 6.1617 12.8861 6.16503 12.6693C6.16836 12.4524 6.21522 12.2385 6.30282 12.0401C6.39043 11.8417 6.51699 11.663 6.675 11.5145C6.98151 11.2264 7.38811 11.0689 7.80871 11.0753C8.22931 11.0818 8.63088 11.2517 8.92839 11.5491C9.2259 11.8465 9.39599 12.248 9.40264 12.6685C9.40928 13.0891 9.25197 13.4958 8.964 13.8025ZM21.84 9.96245C21.5345 9.96287 21.2325 10.0282 20.9541 10.154C20.6757 10.2799 20.4272 10.4634 20.225 10.6925C20.0228 10.4623 19.7737 10.2779 19.4945 10.1517C19.2153 10.0254 18.9124 9.96023 18.606 9.96045C18.1753 9.9599 17.7545 10.0888 17.398 10.3305C17.188 10.0975 16.718 9.96045 16.449 9.96045V15.3555L16.719 15.3425C17.169 15.3125 17.497 14.9935 17.515 14.5465L17.528 14.2765V12.3875L17.542 12.1175C17.552 11.9155 17.582 11.7355 17.674 11.5775C17.8173 11.3298 18.053 11.1493 18.3292 11.0756C18.6054 11.0019 18.8996 11.0411 19.147 11.1845C19.3099 11.2786 19.4454 11.4137 19.54 11.5765C19.633 11.7365 19.66 11.9165 19.672 12.1165L19.686 12.3875V14.2765L19.699 14.5455C19.7074 14.7537 19.7938 14.9512 19.9411 15.0987C20.0884 15.2462 20.2857 15.3328 20.494 15.3415L20.764 15.3545V12.3875L20.776 12.1175C20.786 11.9175 20.816 11.7335 20.91 11.5745C21.21 11.0605 21.87 10.8845 22.383 11.1845C22.5461 11.2788 22.6816 11.4143 22.776 11.5775C22.868 11.7375 22.896 11.9205 22.906 12.1175L22.921 12.3875V14.2765L22.934 14.5455C22.962 14.9885 23.284 15.3155 23.73 15.3415L24 15.3545V12.1175C23.9997 11.8341 23.9437 11.5535 23.835 11.2918C23.7263 11.0301 23.5671 10.7923 23.3665 10.5921C23.1659 10.3919 22.9279 10.2332 22.666 10.125C22.4041 10.0167 22.1234 9.96219 21.84 9.96245ZM11.577 10.7505C11.3155 10.9983 11.1063 11.296 10.9617 11.626C10.8172 11.956 10.7401 12.3117 10.7352 12.672C10.7302 13.0323 10.7975 13.3899 10.9329 13.7238C11.0684 14.0576 11.2694 14.361 11.524 14.6159C11.7785 14.8708 12.0816 15.0721 12.4152 15.2079C12.7488 15.3438 13.1062 15.4114 13.4664 15.4068C13.8266 15.4022 14.1822 15.3254 14.5122 15.1811C14.8422 15.0368 15.14 14.8278 15.388 14.5665C15.8719 14.0565 16.1377 13.3776 16.1287 12.6745C16.1197 11.9714 15.8367 11.2996 15.3399 10.8021C14.8431 10.3047 14.1718 10.0209 13.4689 10.0113C12.7661 10.0016 12.0873 10.2668 11.577 10.7505ZM14.627 13.8025C14.4772 13.9552 14.2986 14.0767 14.1015 14.16C13.9044 14.2433 13.6928 14.2867 13.4788 14.2877C13.2649 14.2887 13.0528 14.2473 12.855 14.1659C12.6571 14.0845 12.4774 13.9646 12.3261 13.8133C12.1749 13.662 12.0551 13.4822 11.9738 13.2843C11.8924 13.0864 11.8511 12.8744 11.8522 12.6604C11.8533 12.4465 11.8968 12.2348 11.9802 12.0378C12.0636 11.8408 12.1852 11.6622 12.338 11.5125C12.6427 11.2138 13.0529 11.0476 13.4795 11.0498C13.9061 11.052 14.3146 11.2225 14.6162 11.5242C14.9178 11.8259 15.0882 12.2345 15.0902 12.6611C15.0922 13.0877 14.9257 13.4979 14.627 13.8025Z" fill="#0047B3"/>
</g>
</svg>
