<svg width="24" height="24" viewBox="0 0 24 24" fill="none" xmlns="http://www.w3.org/2000/svg">
<path d="M21 17.75C21 18.612 20.6576 19.4386 20.0481 20.0481C19.4386 20.6576 18.612 21 17.75 21H6.25C5.38805 21 4.5614 20.6576 3.9519 20.0481C3.34241 19.4386 3 18.612 3 17.75V6.25C3 5.38805 3.34241 4.5614 3.9519 3.9519C4.5614 3.34241 5.38805 3 6.25 3H17.75C18.612 3 19.4386 3.34241 20.0481 3.9519C20.6576 4.5614 21 5.38805 21 6.25V17.75ZM17 7.75C17 7.56876 16.9344 7.39366 16.8152 7.25707C16.6961 7.12048 16.5316 7.03165 16.352 7.007L16.25 7H7.75L7.648 7.007C7.46849 7.0317 7.30399 7.12055 7.18491 7.25714C7.06583 7.39372 7.00023 7.5688 7.00023 7.75C7.00023 7.9312 7.06583 8.10628 7.18491 8.24286C7.30399 8.37945 7.46849 8.4683 7.648 8.493L7.75 8.5H16.25L16.352 8.493C16.5316 8.46835 16.6961 8.37952 16.8152 8.24293C16.9344 8.10634 17 7.93124 17 7.75ZM17 16.25C17 16.0688 16.9344 15.8937 16.8152 15.7571C16.6961 15.6205 16.5316 15.5316 16.352 15.507L16.25 15.5H7.75L7.648 15.507C7.46849 15.5317 7.30399 15.6206 7.18491 15.7571C7.06583 15.8937 7.00023 16.0688 7.00023 16.25C7.00023 16.4312 7.06583 16.6063 7.18491 16.7429C7.30399 16.8794 7.46849 16.9683 7.648 16.993L7.75 17H16.25L16.352 16.993C16.5316 16.9684 16.6961 16.8795 16.8152 16.7429C16.9344 16.6063 17 16.4312 17 16.25ZM17 12C17 11.8188 16.9344 11.6437 16.8152 11.5071C16.6961 11.3705 16.5316 11.2816 16.352 11.257L16.25 11.25H7.75L7.648 11.257C7.46849 11.2817 7.30399 11.3706 7.18491 11.5071C7.06583 11.6437 7.00023 11.8188 7.00023 12C7.00023 12.1812 7.06583 12.3563 7.18491 12.4929C7.30399 12.6294 7.46849 12.7183 7.648 12.743L7.75 12.75H16.25L16.352 12.743C16.5316 12.7184 16.6961 12.6295 16.8152 12.4929C16.9344 12.3563 17 12.1812 17 12Z" fill="#003E9C"/>
</svg>
