<svg width="17" height="16" viewBox="0 0 17 16" fill="none" xmlns="http://www.w3.org/2000/svg">
<path fill-rule="evenodd" clip-rule="evenodd" d="M8.10645 1.5C4.51645 1.5 1.60645 4.41 1.60645 8C1.60645 11.59 4.51645 14.5 8.10645 14.5C11.6964 14.5 14.6064 11.59 14.6064 8C14.6064 4.41 11.6964 1.5 8.10645 1.5ZM6.95978 6.14667C6.914 6.09754 6.8588 6.05814 6.79747 6.03081C6.73614 6.00348 6.66993 5.98879 6.60279 5.98761C6.53566 5.98642 6.46897 5.99877 6.40671 6.02392C6.34445 6.04907 6.2879 6.0865 6.24042 6.13398C6.19294 6.18145 6.15551 6.23801 6.13036 6.30027C6.10522 6.36253 6.09287 6.42921 6.09405 6.49635C6.09524 6.56348 6.10993 6.62969 6.13726 6.69103C6.16459 6.75236 6.20399 6.80756 6.25311 6.85333L7.39978 8L6.25311 9.14667C6.20399 9.19244 6.16459 9.24764 6.13726 9.30897C6.10993 9.37031 6.09524 9.43652 6.09405 9.50365C6.09287 9.57079 6.10522 9.63747 6.13036 9.69973C6.15551 9.76199 6.19294 9.81855 6.24042 9.86603C6.2879 9.9135 6.34445 9.95093 6.40671 9.97608C6.46897 10.0012 6.53566 10.0136 6.60279 10.0124C6.66993 10.0112 6.73614 9.99652 6.79747 9.96919C6.8588 9.94186 6.914 9.90246 6.95978 9.85333L8.10645 8.70667L9.25311 9.85333C9.29889 9.90246 9.35409 9.94186 9.41542 9.96919C9.47675 9.99652 9.54296 10.0112 9.6101 10.0124C9.67723 10.0136 9.74392 10.0012 9.80618 9.97608C9.86844 9.95093 9.92499 9.9135 9.97247 9.86603C10.0199 9.81855 10.0574 9.76199 10.0825 9.69973C10.1077 9.63747 10.12 9.57079 10.1188 9.50365C10.1177 9.43652 10.103 9.37031 10.0756 9.30897C10.0483 9.24764 10.0089 9.19244 9.95978 9.14667L8.81311 8L9.95978 6.85333C10.0089 6.80756 10.0483 6.75236 10.0756 6.69103C10.103 6.62969 10.1177 6.56348 10.1188 6.49635C10.12 6.42921 10.1077 6.36253 10.0825 6.30027C10.0574 6.23801 10.0199 6.18145 9.97247 6.13398C9.92499 6.0865 9.86844 6.04907 9.80618 6.02392C9.74392 5.99877 9.67723 5.98642 9.6101 5.98761C9.54296 5.98879 9.47675 6.00348 9.41542 6.03081C9.35409 6.05814 9.29889 6.09754 9.25311 6.14667L8.10645 7.29333L6.95978 6.14667Z" fill="#FEAAAA"/>
</svg>
