<svg width="13" height="13" viewBox="0 0 13 13" fill="none" xmlns="http://www.w3.org/2000/svg">
<path d="M4.90652 3.09544C4.8143 3.18768 4.7625 3.31277 4.7625 3.44321C4.7625 3.57364 4.8143 3.69873 4.90652 3.79098L8.00202 6.88648L4.90652 9.98199C4.85954 10.0274 4.82206 10.0816 4.79628 10.1417C4.7705 10.2017 4.75693 10.2662 4.75637 10.3315C4.7558 10.3968 4.76824 10.4616 4.79298 10.5221C4.81771 10.5825 4.85424 10.6374 4.90042 10.6836C4.94661 10.7298 5.00153 10.7663 5.06198 10.7911C5.12243 10.8158 5.1872 10.8283 5.25252 10.8277C5.31783 10.8271 5.38238 10.8135 5.44239 10.7878C5.50241 10.762 5.55668 10.7245 5.60206 10.6775L9.04534 7.23426C9.13755 7.14201 9.18936 7.01692 9.18936 6.88648C9.18936 6.75605 9.13755 6.63096 9.04534 6.53871L5.60206 3.09544C5.50982 3.00322 5.38472 2.95142 5.25429 2.95142C5.12386 2.95142 4.99876 3.00322 4.90652 3.09544Z" fill="#091E42"/>
</svg>
