<svg width="25" height="24" viewBox="0 0 25 24" fill="none" xmlns="http://www.w3.org/2000/svg">
<path fill-rule="evenodd" clip-rule="evenodd" d="M12.5 2.25C12.6989 2.25 12.8897 2.32902 13.0303 2.46967C13.171 2.61032 13.25 2.80109 13.25 3V14.69L16.47 11.47C16.5387 11.3963 16.6215 11.3372 16.7135 11.2962C16.8055 11.2552 16.9048 11.2332 17.0055 11.2314C17.1062 11.2296 17.2062 11.2482 17.2996 11.2859C17.393 11.3236 17.4778 11.3797 17.549 11.451C17.6203 11.5222 17.6764 11.607 17.7141 11.7004C17.7518 11.7938 17.7704 11.8938 17.7686 11.9945C17.7668 12.0952 17.7448 12.1945 17.7038 12.2865C17.6628 12.3785 17.6037 12.4613 17.53 12.53L13.03 17.03C12.8894 17.1705 12.6988 17.2493 12.5 17.2493C12.3012 17.2493 12.1106 17.1705 11.97 17.03L7.47 12.53C7.39631 12.4613 7.33721 12.3785 7.29622 12.2865C7.25523 12.1945 7.23319 12.0952 7.23141 11.9945C7.22963 11.8938 7.24816 11.7938 7.28588 11.7004C7.3236 11.607 7.37974 11.5222 7.45096 11.451C7.52218 11.3797 7.60701 11.3236 7.7004 11.2859C7.79379 11.2482 7.89382 11.2296 7.99452 11.2314C8.09523 11.2332 8.19454 11.2552 8.28654 11.2962C8.37854 11.3372 8.46134 11.3963 8.53 11.47L11.75 14.69V3C11.75 2.80109 11.829 2.61032 11.9697 2.46967C12.1103 2.32902 12.3011 2.25 12.5 2.25ZM3.5 15.75C3.69891 15.75 3.88968 15.829 4.03033 15.9697C4.17098 16.1103 4.25 16.3011 4.25 16.5V18.75C4.25 19.1478 4.40804 19.5294 4.68934 19.8107C4.97064 20.092 5.35218 20.25 5.75 20.25H19.25C19.6478 20.25 20.0294 20.092 20.3107 19.8107C20.592 19.5294 20.75 19.1478 20.75 18.75V16.5C20.75 16.3011 20.829 16.1103 20.9697 15.9697C21.1103 15.829 21.3011 15.75 21.5 15.75C21.6989 15.75 21.8897 15.829 22.0303 15.9697C22.171 16.1103 22.25 16.3011 22.25 16.5V18.75C22.25 19.5456 21.9339 20.3087 21.3713 20.8713C20.8087 21.4339 20.0456 21.75 19.25 21.75H5.75C4.95435 21.75 4.19129 21.4339 3.62868 20.8713C3.06607 20.3087 2.75 19.5456 2.75 18.75V16.5C2.75 16.3011 2.82902 16.1103 2.96967 15.9697C3.11032 15.829 3.30109 15.75 3.5 15.75Z" fill="#091E42"/>
</svg>
