<svg width="25" height="24" viewBox="0 0 25 24" fill="none" xmlns="http://www.w3.org/2000/svg">
<g id="Expense Arrow">
<path id="Vector" fill-rule="evenodd" clip-rule="evenodd" d="M8.68002 3.75H19.93C20.1289 3.75 20.3197 3.82902 20.4604 3.96967C20.601 4.11032 20.68 4.30109 20.68 4.5V15.75C20.68 15.9489 20.601 16.1397 20.4604 16.2803C20.3197 16.421 20.1289 16.5 19.93 16.5C19.7311 16.5 19.5403 16.421 19.3997 16.2803C19.259 16.1397 19.18 15.9489 19.18 15.75V6.31L5.46002 20.03C5.31785 20.1625 5.1298 20.2346 4.9355 20.2312C4.7412 20.2277 4.55581 20.149 4.4184 20.0116C4.28099 19.8742 4.20228 19.6888 4.19885 19.4945C4.19542 19.3002 4.26754 19.1122 4.40002 18.97L18.12 5.25H8.68002C8.48111 5.25 8.29034 5.17098 8.14969 5.03033C8.00904 4.88968 7.93002 4.69891 7.93002 4.5C7.93002 4.30109 8.00904 4.11032 8.14969 3.96967C8.29034 3.82902 8.48111 3.75 8.68002 3.75Z" fill="#B12222"/>
</g>
</svg>
