<svg width="24" height="25" viewBox="0 0 24 25" fill="none" xmlns="http://www.w3.org/2000/svg">
<path d="M14.754 10.8992C15.72 10.8992 16.504 11.6832 16.504 12.6492V17.3982C16.504 18.5919 16.0298 19.7368 15.1857 20.5809C14.3416 21.425 13.1967 21.8992 12.003 21.8992C10.8093 21.8992 9.66441 21.425 8.82031 20.5809C7.97621 19.7368 7.502 18.5919 7.502 17.3982V12.6492C7.502 11.6832 8.285 10.8992 9.252 10.8992H14.754ZM7.131 10.8992C6.781 11.3212 6.556 11.8492 6.511 12.4292L6.501 12.6492V17.3982C6.501 18.2452 6.693 19.0472 7.035 19.7632C6.44228 19.9217 5.82103 19.9419 5.21929 19.822C4.61756 19.7021 4.05145 19.4454 3.56475 19.0718C3.07805 18.6982 2.68379 18.2177 2.41246 17.6674C2.14114 17.1171 2.00001 16.5117 2 15.8982V12.6492C2.00002 12.21 2.16517 11.7869 2.46268 11.4638C2.76019 11.1407 3.1683 10.9413 3.606 10.9052L3.75 10.8992H7.131ZM16.875 10.8992H20.25C21.216 10.8992 22 11.6832 22 12.6492V15.8992C22.0001 16.5123 21.8593 17.1173 21.5884 17.6674C21.3175 18.2175 20.9237 18.6979 20.4376 19.0715C19.9514 19.4452 19.3858 19.7021 18.7846 19.8224C18.1833 19.9426 17.5625 19.9231 16.97 19.7652C17.27 19.1372 17.454 18.4452 17.495 17.7132L17.504 17.3982V12.6492C17.504 11.9842 17.269 11.3742 16.875 10.8992ZM12 3.89917C12.7956 3.89917 13.5587 4.21524 14.1213 4.77785C14.6839 5.34046 15 6.10352 15 6.89917C15 7.69482 14.6839 8.45788 14.1213 9.02049C13.5587 9.5831 12.7956 9.89917 12 9.89917C11.2044 9.89917 10.4413 9.5831 9.87868 9.02049C9.31607 8.45788 9 7.69482 9 6.89917C9 6.10352 9.31607 5.34046 9.87868 4.77785C10.4413 4.21524 11.2044 3.89917 12 3.89917ZM18.5 4.89917C19.163 4.89917 19.7989 5.16256 20.2678 5.6314C20.7366 6.10024 21 6.73613 21 7.39917C21 8.06221 20.7366 8.6981 20.2678 9.16694C19.7989 9.63578 19.163 9.89917 18.5 9.89917C17.837 9.89917 17.2011 9.63578 16.7322 9.16694C16.2634 8.6981 16 8.06221 16 7.39917C16 6.73613 16.2634 6.10024 16.7322 5.6314C17.2011 5.16256 17.837 4.89917 18.5 4.89917ZM5.5 4.89917C6.16304 4.89917 6.79893 5.16256 7.26777 5.6314C7.73661 6.10024 8 6.73613 8 7.39917C8 8.06221 7.73661 8.6981 7.26777 9.16694C6.79893 9.63578 6.16304 9.89917 5.5 9.89917C4.83696 9.89917 4.20107 9.63578 3.73223 9.16694C3.26339 8.6981 3 8.06221 3 7.39917C3 6.73613 3.26339 6.10024 3.73223 5.6314C4.20107 5.16256 4.83696 4.89917 5.5 4.89917Z" fill="#003E9C"/>
</svg>
