<svg width="25" height="24" viewBox="0 0 25 24" fill="none" xmlns="http://www.w3.org/2000/svg">
<g id="Income Arrow">
<path id="Vector" fill-rule="evenodd" clip-rule="evenodd" d="M20.4599 3.96934C20.6004 4.10997 20.6793 4.30059 20.6793 4.49934C20.6793 4.69809 20.6004 4.88871 20.4599 5.02934L6.73993 18.7493H16.1799C16.3788 18.7493 16.5696 18.8284 16.7103 18.969C16.8509 19.1097 16.9299 19.3004 16.9299 19.4993C16.9299 19.6983 16.8509 19.889 16.7103 20.0297C16.5696 20.1703 16.3788 20.2493 16.1799 20.2493H4.92993C4.73102 20.2493 4.54025 20.1703 4.3996 20.0297C4.25895 19.889 4.17993 19.6983 4.17993 19.4993V8.24934C4.17993 8.05043 4.25895 7.85966 4.3996 7.71901C4.54025 7.57836 4.73102 7.49934 4.92993 7.49934C5.12884 7.49934 5.31961 7.57836 5.46026 7.71901C5.60091 7.85966 5.67993 8.05043 5.67993 8.24934V17.6893L19.3999 3.96934C19.5406 3.82889 19.7312 3.75 19.9299 3.75C20.1287 3.75 20.3193 3.82889 20.4599 3.96934Z" fill="#225816"/>
</g>
</svg>
