<svg width="24" height="25" viewBox="0 0 24 25" fill="none" xmlns="http://www.w3.org/2000/svg">
<path fill-rule="evenodd" clip-rule="evenodd" d="M1.5 8.02417C1.5 6.98817 2.34 6.14917 3.375 6.14917H9.375C10.411 6.14917 11.25 6.98917 11.25 8.02417V11.7742C11.25 12.8102 10.41 13.6492 9.375 13.6492H3.375C2.87772 13.6492 2.40081 13.4516 2.04917 13.1C1.69754 12.7484 1.5 12.2715 1.5 11.7742V8.02417ZM13.5 9.52417C13.5 8.48817 14.34 7.64917 15.375 7.64917H20.625C21.66 7.64917 22.5 8.48917 22.5 9.52417V17.7742C22.5 18.8092 21.66 19.6492 20.625 19.6492H15.375C14.8777 19.6492 14.4008 19.4516 14.0492 19.1C13.6975 18.7484 13.5 18.2715 13.5 17.7742V9.52417ZM3 17.0242C3 15.9882 3.84 15.1492 4.875 15.1492H10.125C11.161 15.1492 12 15.9892 12 17.0242V19.2742C12 20.3092 11.16 21.1492 10.125 21.1492H4.875C4.37772 21.1492 3.90081 20.9516 3.54917 20.6C3.19754 20.2484 3 19.7715 3 19.2742V17.0242Z" fill="#003E9C"/>
</svg>
