<svg width="24" height="25" viewBox="0 0 24 25" fill="none" xmlns="http://www.w3.org/2000/svg">
<path fill-rule="evenodd" clip-rule="evenodd" d="M11.0779 3.14917C10.1609 3.14917 9.37893 3.81217 9.22793 4.71617L9.04993 5.78817C9.02993 5.90817 8.93494 6.04817 8.75293 6.13617C8.41028 6.30088 8.08067 6.49143 7.76693 6.70617C7.60093 6.82117 7.43293 6.83217 7.31693 6.78917L6.29993 6.40717C5.88418 6.25141 5.42663 6.24823 5.00875 6.39821C4.59087 6.54818 4.23976 6.84158 4.01793 7.22617L3.09593 8.82317C2.87402 9.20753 2.79565 9.65814 2.87475 10.0949C2.95385 10.5316 3.18531 10.9261 3.52793 11.2082L4.36793 11.9002C4.46293 11.9782 4.53793 12.1292 4.52193 12.3302C4.49344 12.7093 4.49344 13.09 4.52193 13.4692C4.53693 13.6692 4.46293 13.8212 4.36893 13.8992L3.52793 14.5912C3.18531 14.8733 2.95385 15.2678 2.87475 15.7045C2.79565 16.1412 2.87402 16.5918 3.09593 16.9762L4.01793 18.5732C4.23992 18.9576 4.59109 19.2508 5.00896 19.4006C5.42683 19.5503 5.88429 19.547 6.29993 19.3912L7.31893 19.0092C7.43393 18.9662 7.60193 18.9782 7.76893 19.0912C8.08093 19.3052 8.40993 19.4962 8.75393 19.6612C8.93593 19.7492 9.03093 19.8892 9.05093 20.0112L9.22893 21.0822C9.37993 21.9862 10.1619 22.6492 11.0789 22.6492H12.9229C13.8389 22.6492 14.6219 21.9862 14.7729 21.0822L14.9509 20.0102C14.9709 19.8902 15.0649 19.7502 15.2479 19.6612C15.5919 19.4962 15.9209 19.3052 16.2329 19.0912C16.3999 18.9772 16.5679 18.9662 16.6829 19.0092L17.7029 19.3912C18.1184 19.5464 18.5755 19.5493 18.993 19.3993C19.4104 19.2494 19.7612 18.9563 19.9829 18.5722L20.9059 16.9752C21.1278 16.5908 21.2062 16.1402 21.1271 15.7035C21.048 15.2668 20.8166 14.8723 20.4739 14.5902L19.6339 13.8982C19.5389 13.8202 19.4639 13.6692 19.4799 13.4682C19.5084 13.089 19.5084 12.7083 19.4799 12.3292C19.4639 12.1292 19.5389 11.9772 19.6329 11.8992L20.4729 11.2072C21.1809 10.6252 21.3639 9.61717 20.9059 8.82217L19.9839 7.22517C19.7619 6.84076 19.4108 6.54757 18.9929 6.39778C18.575 6.248 18.1176 6.25132 17.7019 6.40717L16.6819 6.78917C16.5679 6.83217 16.3999 6.82017 16.2329 6.70617C15.9195 6.49147 15.5902 6.30092 15.2479 6.13617C15.0649 6.04917 14.9709 5.90917 14.9509 5.78817L14.7719 4.71617C14.699 4.27823 14.473 3.88039 14.1343 3.59344C13.7955 3.30649 13.3659 3.14906 12.9219 3.14917H11.0789H11.0779ZM11.9999 16.6492C12.9945 16.6492 13.9483 16.2541 14.6516 15.5508C15.3548 14.8476 15.7499 13.8937 15.7499 12.8992C15.7499 11.9046 15.3548 10.9508 14.6516 10.2475C13.9483 9.54426 12.9945 9.14917 11.9999 9.14917C11.0054 9.14917 10.0515 9.54426 9.34828 10.2475C8.64502 10.9508 8.24993 11.9046 8.24993 12.8992C8.24993 13.8937 8.64502 14.8476 9.34828 15.5508C10.0515 16.2541 11.0054 16.6492 11.9999 16.6492Z" fill="#003E9C"/>
</svg>
