<svg width="16" height="17" viewBox="0 0 16 17" fill="none" xmlns="http://www.w3.org/2000/svg">
<path fill-rule="evenodd" clip-rule="evenodd" d="M1.5 8.39917C1.5 4.80917 4.41 1.89917 8 1.89917C11.59 1.89917 14.5 4.80917 14.5 8.39917C14.5 11.9892 11.59 14.8992 8 14.8992C4.41 14.8992 1.5 11.9892 1.5 8.39917ZM10.4067 7.18984C10.4467 7.13654 10.4756 7.07578 10.4918 7.01114C10.508 6.94649 10.5111 6.87926 10.5009 6.81341C10.4907 6.74755 10.4675 6.68439 10.4326 6.62764C10.3976 6.57088 10.3517 6.52169 10.2975 6.48294C10.2433 6.44419 10.1819 6.41667 10.1169 6.40199C10.0519 6.38731 9.98459 6.38578 9.91899 6.39748C9.85338 6.40918 9.79078 6.43387 9.73485 6.47011C9.67893 6.50635 9.63081 6.5534 9.59333 6.6085L7.436 9.6285L6.35333 8.54584C6.25855 8.45752 6.13319 8.40943 6.00365 8.41172C5.87412 8.41401 5.75053 8.46648 5.65892 8.55809C5.56731 8.6497 5.51484 8.77329 5.51255 8.90282C5.51026 9.03236 5.55835 9.15772 5.64667 9.2525L7.14667 10.7525C7.19799 10.8038 7.25987 10.8433 7.32799 10.8683C7.39612 10.8932 7.46886 10.9031 7.54118 10.8971C7.61349 10.8912 7.68364 10.8695 7.74675 10.8337C7.80987 10.7979 7.86443 10.7488 7.90667 10.6898L10.4067 7.18984Z" fill="#ABCAA4"/>
</svg>
