<svg width="17" height="16" viewBox="0 0 17 16" fill="none" xmlns="http://www.w3.org/2000/svg">
<path fill-rule="evenodd" clip-rule="evenodd" d="M2.10645 8C2.10645 4.41 5.01645 1.5 8.60645 1.5C12.1964 1.5 15.1064 4.41 15.1064 8C15.1064 11.59 12.1964 14.5 8.60645 14.5C5.01645 14.5 2.10645 11.59 2.10645 8ZM11.0131 6.79067C11.0531 6.73737 11.0821 6.67661 11.0982 6.61197C11.1144 6.54732 11.1175 6.48009 11.1073 6.41424C11.0972 6.34838 11.0739 6.28522 11.039 6.22847C11.0041 6.17171 10.9582 6.12252 10.9039 6.08377C10.8497 6.04502 10.7883 6.0175 10.7233 6.00282C10.6583 5.98814 10.591 5.98661 10.5254 5.99831C10.4598 6.01001 10.3972 6.0347 10.3413 6.07094C10.2854 6.10718 10.2373 6.15423 10.1998 6.20933L8.04245 9.22933L6.95978 8.14667C6.865 8.05835 6.73963 8.01026 6.6101 8.01255C6.48056 8.01484 6.35697 8.06731 6.26536 8.15892C6.17376 8.25053 6.12128 8.37412 6.119 8.50365C6.11671 8.63319 6.16479 8.75855 6.25311 8.85333L7.75311 10.3533C7.80444 10.4046 7.86631 10.4441 7.93444 10.4691C8.00256 10.4941 8.07531 10.5039 8.14762 10.498C8.21993 10.492 8.29008 10.4704 8.3532 10.4346C8.41631 10.3988 8.47088 10.3497 8.51311 10.2907L11.0131 6.79067Z" fill="#ABCAA4"/>
</svg>
