<svg width="24" height="24" viewBox="0 0 24 24" fill="none" xmlns="http://www.w3.org/2000/svg">
<path d="M20 8V19.5C20 20.163 19.7366 20.7989 19.2678 21.2678C18.7989 21.7366 18.163 22 17.5 22H6.5C5.83696 22 5.20107 21.7366 4.73223 21.2678C4.26339 20.7989 4 20.163 4 19.5V8H20ZM14 11.5H10C9.80109 11.5 9.61032 11.579 9.46967 11.7197C9.32902 11.8603 9.25 12.0511 9.25 12.25C9.25 12.4489 9.32902 12.6397 9.46967 12.7803C9.61032 12.921 9.80109 13 10 13H14C14.1989 13 14.3897 12.921 14.5303 12.7803C14.671 12.6397 14.75 12.4489 14.75 12.25C14.75 12.0511 14.671 11.8603 14.5303 11.7197C14.3897 11.579 14.1989 11.5 14 11.5ZM20 3C20.2652 3 20.5196 3.10536 20.7071 3.29289C20.8946 3.48043 21 3.73478 21 4V6C21 6.26522 20.8946 6.51957 20.7071 6.70711C20.5196 6.89464 20.2652 7 20 7H4C3.73478 7 3.48043 6.89464 3.29289 6.70711C3.10536 6.51957 3 6.26522 3 6V4C3 3.73478 3.10536 3.48043 3.29289 3.29289C3.48043 3.10536 3.73478 3 4 3H20Z" fill="#091E42"/>
</svg>
