<svg width="17" height="17" viewBox="0 0 17 17" fill="none" xmlns="http://www.w3.org/2000/svg">
<path fill-rule="evenodd" clip-rule="evenodd" d="M8.5 1.89917C4.91 1.89917 2 4.80917 2 8.39917C2 11.9892 4.91 14.8992 8.5 14.8992C12.09 14.8992 15 11.9892 15 8.39917C15 4.80917 12.09 1.89917 8.5 1.89917ZM7.35333 6.54584C7.30756 6.49671 7.25236 6.45731 7.19103 6.42998C7.12969 6.40265 7.06348 6.38796 6.99635 6.38678C6.92921 6.38559 6.86253 6.39794 6.80027 6.42309C6.73801 6.44824 6.68145 6.48567 6.63398 6.53314C6.5865 6.58062 6.54907 6.63718 6.52392 6.69944C6.49877 6.7617 6.48642 6.82838 6.48761 6.89552C6.48879 6.96265 6.50348 7.02886 6.53081 7.0902C6.55814 7.15153 6.59754 7.20673 6.64667 7.2525L7.79333 8.39917L6.64667 9.54584C6.59754 9.59161 6.55814 9.64681 6.53081 9.70814C6.50348 9.76948 6.48879 9.83569 6.48761 9.90282C6.48642 9.96996 6.49877 10.0366 6.52392 10.0989C6.54907 10.1612 6.5865 10.2177 6.63398 10.2652C6.68145 10.3127 6.73801 10.3501 6.80027 10.3753C6.86253 10.4004 6.92921 10.4127 6.99635 10.4116C7.06348 10.4104 7.12969 10.3957 7.19103 10.3684C7.25236 10.341 7.30756 10.3016 7.35333 10.2525L8.5 9.10584L9.64667 10.2525C9.69244 10.3016 9.74764 10.341 9.80897 10.3684C9.87031 10.3957 9.93652 10.4104 10.0037 10.4116C10.0708 10.4127 10.1375 10.4004 10.1997 10.3753C10.262 10.3501 10.3185 10.3127 10.366 10.2652C10.4135 10.2177 10.4509 10.1612 10.4761 10.0989C10.5012 10.0366 10.5136 9.96996 10.5124 9.90282C10.5112 9.83569 10.4965 9.76948 10.4692 9.70814C10.4419 9.64681 10.4025 9.59161 10.3533 9.54584L9.20667 8.39917L10.3533 7.2525C10.4025 7.20673 10.4419 7.15153 10.4692 7.0902C10.4965 7.02886 10.5112 6.96265 10.5124 6.89552C10.5136 6.82838 10.5012 6.7617 10.4761 6.69944C10.4509 6.63718 10.4135 6.58062 10.366 6.53314C10.3185 6.48567 10.262 6.44824 10.1997 6.42309C10.1375 6.39794 10.0708 6.38559 10.0037 6.38678C9.93652 6.38796 9.87031 6.40265 9.80897 6.42998C9.74764 6.45731 9.69244 6.49671 9.64667 6.54584L8.5 7.6925L7.35333 6.54584Z" fill="#FEAAAA"/>
</svg>
