<svg width="24" height="25" viewBox="0 0 24 25" fill="none" xmlns="http://www.w3.org/2000/svg">
<path d="M5.22289 3.14917C4.72589 3.14917 4.24889 3.34717 3.89789 3.69917L2.59789 4.99717C1.92611 5.6677 1.5336 6.56801 1.49949 7.51655C1.46539 8.46509 1.79224 9.39127 2.41413 10.1083C3.03602 10.8253 3.90667 11.2799 4.8505 11.3803C5.79432 11.4806 6.7411 11.2194 7.49989 10.6492C8.12689 11.1192 8.90589 11.3992 9.74989 11.3992C10.5939 11.3992 11.3739 11.1192 11.9999 10.6492C12.6259 11.1192 13.4059 11.3992 14.2499 11.3992C15.0939 11.3992 15.8729 11.1192 16.4999 10.6492C17.2587 11.2194 18.2054 11.4806 19.1493 11.3803C20.0931 11.2799 20.9638 10.8253 21.5856 10.1083C22.2075 9.39127 22.5344 8.46509 22.5003 7.51655C22.4662 6.56801 22.0737 5.6677 21.4019 4.99717L20.1019 3.69817C19.7504 3.34681 19.2739 3.14934 18.7769 3.14917H5.22289Z" fill="#003E9C"/>
<path fill-rule="evenodd" clip-rule="evenodd" d="M3 21.1492V12.3942C4.42 13.0682 6.08 13.0672 7.5 12.3942C8.20313 12.7277 8.97178 12.9002 9.75 12.8992C10.554 12.8992 11.318 12.7172 12 12.3932C12.7031 12.727 13.4717 12.8999 14.25 12.8992C15.054 12.8992 15.817 12.7172 16.5 12.3932C17.92 13.0672 19.58 13.0682 21 12.3942V21.1492H21.75C21.9489 21.1492 22.1397 21.2282 22.2803 21.3689C22.421 21.5095 22.5 21.7003 22.5 21.8992C22.5 22.0981 22.421 22.2889 22.2803 22.4295C22.1397 22.5702 21.9489 22.6492 21.75 22.6492H2.25C2.05109 22.6492 1.86032 22.5702 1.71967 22.4295C1.57902 22.2889 1.5 22.0981 1.5 21.8992C1.5 21.7003 1.57902 21.5095 1.71967 21.3689C1.86032 21.2282 2.05109 21.1492 2.25 21.1492H3ZM6 15.1492C6 14.9503 6.07902 14.7595 6.21967 14.6189C6.36032 14.4782 6.55109 14.3992 6.75 14.3992H9.75C9.94891 14.3992 10.1397 14.4782 10.2803 14.6189C10.421 14.7595 10.5 14.9503 10.5 15.1492V18.1492C10.5 18.3481 10.421 18.5389 10.2803 18.6795C10.1397 18.8202 9.94891 18.8992 9.75 18.8992H6.75C6.55109 18.8992 6.36032 18.8202 6.21967 18.6795C6.07902 18.5389 6 18.3481 6 18.1492V15.1492ZM14.25 14.3992C14.0511 14.3992 13.8603 14.4782 13.7197 14.6189C13.579 14.7595 13.5 14.9503 13.5 15.1492V20.3992C13.5 20.8132 13.836 21.1492 14.25 21.1492H17.25C17.4489 21.1492 17.6397 21.0702 17.7803 20.9295C17.921 20.7889 18 20.5981 18 20.3992V15.1492C18 14.9503 17.921 14.7595 17.7803 14.6189C17.6397 14.4782 17.4489 14.3992 17.25 14.3992H14.25Z" fill="#003E9C"/>
</svg>
