<svg width="24" height="24" viewBox="0 0 24 24" fill="none" xmlns="http://www.w3.org/2000/svg">
<path fill-rule="evenodd" clip-rule="evenodd" d="M7 6.5C7 6.10218 7.15804 5.72064 7.43934 5.43934C7.72064 5.15804 8.10218 5 8.5 5C8.89782 5 9.27936 5.15804 9.56066 5.43934C9.84196 5.72064 10 6.10218 10 6.5C10 6.89782 9.84196 7.27936 9.56066 7.56066C9.27936 7.84196 8.89782 8 8.5 8C8.10218 8 7.72064 7.84196 7.43934 7.56066C7.15804 7.27936 7 6.89782 7 6.5ZM7 12.5C7 12.1022 7.15804 11.7206 7.43934 11.4393C7.72064 11.158 8.10218 11 8.5 11C8.89782 11 9.27936 11.158 9.56066 11.4393C9.84196 11.7206 10 12.1022 10 12.5C10 12.8978 9.84196 13.2794 9.56066 13.5607C9.27936 13.842 8.89782 14 8.5 14C8.10218 14 7.72064 13.842 7.43934 13.5607C7.15804 13.2794 7 12.8978 7 12.5ZM7 18.5C7 18.1022 7.15804 17.7206 7.43934 17.4393C7.72064 17.158 8.10218 17 8.5 17C8.89782 17 9.27936 17.158 9.56066 17.4393C9.84196 17.7206 10 18.1022 10 18.5C10 18.8978 9.84196 19.2794 9.56066 19.5607C9.27936 19.842 8.89782 20 8.5 20C8.10218 20 7.72064 19.842 7.43934 19.5607C7.15804 19.2794 7 18.8978 7 18.5Z" fill="#7A8699"/>
<path fill-rule="evenodd" clip-rule="evenodd" d="M14 6.5C14 6.10218 14.158 5.72064 14.4393 5.43934C14.7206 5.15804 15.1022 5 15.5 5C15.8978 5 16.2794 5.15804 16.5607 5.43934C16.842 5.72064 17 6.10218 17 6.5C17 6.89782 16.842 7.27936 16.5607 7.56066C16.2794 7.84196 15.8978 8 15.5 8C15.1022 8 14.7206 7.84196 14.4393 7.56066C14.158 7.27936 14 6.89782 14 6.5ZM14 12.5C14 12.1022 14.158 11.7206 14.4393 11.4393C14.7206 11.158 15.1022 11 15.5 11C15.8978 11 16.2794 11.158 16.5607 11.4393C16.842 11.7206 17 12.1022 17 12.5C17 12.8978 16.842 13.2794 16.5607 13.5607C16.2794 13.842 15.8978 14 15.5 14C15.1022 14 14.7206 13.842 14.4393 13.5607C14.158 13.2794 14 12.8978 14 12.5ZM14 18.5C14 18.1022 14.158 17.7206 14.4393 17.4393C14.7206 17.158 15.1022 17 15.5 17C15.8978 17 16.2794 17.158 16.5607 17.4393C16.842 17.7206 17 18.1022 17 18.5C17 18.8978 16.842 19.2794 16.5607 19.5607C16.2794 19.842 15.8978 20 15.5 20C15.1022 20 14.7206 19.842 14.4393 19.5607C14.158 19.2794 14 18.8978 14 18.5Z" fill="#7A8699"/>
</svg>
