<svg width="24" height="25" viewBox="0 0 24 25" fill="none" xmlns="http://www.w3.org/2000/svg">
<path d="M10.6919 5.09102C10.3449 5.43796 10.15 5.90852 10.15 6.39917C10.15 6.88982 10.3449 7.36038 10.6919 7.70732C11.0388 8.05426 11.5093 8.24917 12 8.24917C12.4907 8.24917 12.9612 8.05426 13.3081 7.70732C13.6551 7.36038 13.85 6.88982 13.85 6.39917C13.85 5.90852 13.6551 5.43796 13.3081 5.09102C12.9612 4.74408 12.4907 4.54917 12 4.54917C11.5093 4.54917 11.0388 4.74408 10.6919 5.09102ZM10.6919 11.091C10.3449 11.438 10.15 11.9085 10.15 12.3992C10.15 12.8898 10.3449 13.3604 10.6919 13.7073C11.0388 14.0543 11.5093 14.2492 12 14.2492C12.4907 14.2492 12.9612 14.0543 13.3081 13.7073C13.6551 13.3604 13.85 12.8898 13.85 12.3992C13.85 11.9085 13.6551 11.438 13.3081 11.091C12.9612 10.7441 12.4907 10.5492 12 10.5492C11.5093 10.5492 11.0388 10.7441 10.6919 11.091ZM10.6919 17.091C10.3449 17.438 10.15 17.9085 10.15 18.3992C10.15 18.8898 10.3449 19.3604 10.6919 19.7073C11.0388 20.0543 11.5093 20.2492 12 20.2492C12.4907 20.2492 12.9612 20.0543 13.3081 19.7073C13.6551 19.3604 13.85 18.8898 13.85 18.3992C13.85 17.9085 13.6551 17.438 13.3081 17.091C12.9612 16.7441 12.4907 16.5492 12 16.5492C11.5093 16.5492 11.0388 16.7441 10.6919 17.091Z" fill="#091E42" stroke="#091E42" stroke-width="0.7"/>
</svg>
