<svg width="183" height="171" viewBox="0 0 183 171" fill="none" xmlns="http://www.w3.org/2000/svg">
<path id="Vector" d="M6.59375 163.875H176.406M19.6562 7.125V163.875M111.094 7.125V163.875M163.344 46.3125V163.875M45.7812 39.7812H52.3125M45.7812 65.9062H52.3125M45.7812 92.0312H52.3125M78.4375 39.7812H84.9687M78.4375 65.9062H84.9687M78.4375 92.0312H84.9687M45.7812 163.875V134.484C45.7812 129.076 50.1702 124.687 55.5781 124.687H75.1719C80.5797 124.687 84.9687 129.076 84.9687 134.484V163.875M13.125 7.125H117.625M111.094 46.3125H169.875M137.219 78.9687H137.288V79.0384H137.219V78.9687ZM137.219 105.094H137.288V105.163H137.219V105.094ZM137.219 131.219H137.288V131.288H137.219V131.219Z" stroke="#C2C7D0" stroke-width="13.0625" stroke-linecap="round" stroke-linejoin="round"/>
</svg>
