<svg width="24" height="25" viewBox="0 0 24 25" fill="none" xmlns="http://www.w3.org/2000/svg">
<path d="M7.77189 3.1246L8.84789 2.7806C9.85789 2.4586 10.9349 2.9796 11.3679 3.9976L12.2269 6.0256C12.6009 6.9086 12.3939 7.9476 11.7129 8.5936L9.81889 10.3916C9.93489 11.4676 10.2969 12.5266 10.9029 13.5686C11.4787 14.5768 12.2509 15.4592 13.1739 16.1636L15.4489 15.4036C16.3119 15.1166 17.2509 15.4476 17.7789 16.2246L19.0119 18.0346C19.6269 18.9386 19.5169 20.1846 18.7539 20.9506L17.9359 21.7716C17.1219 22.5886 15.9589 22.8856 14.8839 22.5496C12.3449 21.7576 10.0109 19.4066 7.88089 15.4966C5.74789 11.5806 4.99489 8.2566 5.62289 5.5286C5.88689 4.3806 6.70389 3.4656 7.77189 3.1246Z" fill="#091E42"/>
</svg>
