<svg width="24" height="24" viewBox="0 0 24 24" fill="none" xmlns="http://www.w3.org/2000/svg">
<path fill-rule="evenodd" clip-rule="evenodd" d="M5.47032 5.47003C5.61094 5.32958 5.80157 5.25069 6.00032 5.25069C6.19907 5.25069 6.38969 5.32958 6.53032 5.47003L12.0003 10.94L17.4703 5.47003C17.539 5.39634 17.6218 5.33724 17.7138 5.29625C17.8058 5.25526 17.9051 5.23322 18.0058 5.23144C18.1065 5.22966 18.2065 5.24819 18.2999 5.28591C18.3933 5.32363 18.4781 5.37977 18.5494 5.45099C18.6206 5.52221 18.6767 5.60705 18.7144 5.70043C18.7522 5.79382 18.7707 5.89385 18.7689 5.99455C18.7671 6.09526 18.7451 6.19457 18.7041 6.28657C18.6631 6.37857 18.604 6.46137 18.5303 6.53003L13.0603 12L18.5303 17.47C18.604 17.5387 18.6631 17.6215 18.7041 17.7135C18.7451 17.8055 18.7671 17.9048 18.7689 18.0055C18.7707 18.1062 18.7522 18.2062 18.7144 18.2996C18.6767 18.393 18.6206 18.4779 18.5494 18.5491C18.4781 18.6203 18.3933 18.6764 18.2999 18.7142C18.2065 18.7519 18.1065 18.7704 18.0058 18.7686C17.9051 18.7668 17.8058 18.7448 17.7138 18.7038C17.6218 18.6628 17.539 18.6037 17.4703 18.53L12.0003 13.06L6.53032 18.53C6.38814 18.6625 6.2001 18.7346 6.00579 18.7312C5.81149 18.7278 5.62611 18.6491 5.48869 18.5117C5.35128 18.3742 5.27257 18.1889 5.26914 17.9946C5.26571 17.8003 5.33784 17.6122 5.47032 17.47L10.9403 12L5.47032 6.53003C5.32987 6.38941 5.25098 6.19878 5.25098 6.00003C5.25098 5.80128 5.32987 5.61066 5.47032 5.47003Z" fill="#091E42" stroke="#091E42"/>
</svg>
