<svg width="24" height="24" viewBox="0 0 24 24" fill="none" xmlns="http://www.w3.org/2000/svg">
<path d="M23.1215 0.878505C22.5589 0.316003 21.7959 0 21.0003 0C20.2048 0 19.4418 0.316003 18.8792 0.878505L17.5569 2.20079L21.7992 6.44309L23.1215 5.1208C23.684 4.55821 24 3.79522 24 2.99965C24 2.20409 23.684 1.4411 23.1215 0.878505ZM20.5866 7.65567L16.3443 3.41337L2.45858 17.2991C1.75327 18.0041 1.23478 18.8737 0.950008 19.8294L0.0357197 22.898C-0.00842204 23.0461 -0.0117142 23.2033 0.0261915 23.3531C0.0640972 23.5029 0.141791 23.6397 0.251052 23.7489C0.360313 23.8582 0.497078 23.9359 0.646874 23.9738C0.796671 24.0117 0.953929 24.0084 1.10201 23.9643L4.17059 23.05C5.12628 22.7652 5.99592 22.2467 6.70088 21.5414L20.5866 7.65567Z" fill="#091E42"/>
</svg>
