<svg width="25" height="24" viewBox="0 0 25 24" fill="none" xmlns="http://www.w3.org/2000/svg">
<path fill-rule="evenodd" clip-rule="evenodd" d="M7.5 6.5C7.5 6.10218 7.65804 5.72064 7.93934 5.43934C8.22064 5.15804 8.60218 5 9 5C9.39782 5 9.77936 5.15804 10.0607 5.43934C10.342 5.72064 10.5 6.10218 10.5 6.5C10.5 6.89782 10.342 7.27936 10.0607 7.56066C9.77936 7.84196 9.39782 8 9 8C8.60218 8 8.22064 7.84196 7.93934 7.56066C7.65804 7.27936 7.5 6.89782 7.5 6.5ZM7.5 12.5C7.5 12.1022 7.65804 11.7206 7.93934 11.4393C8.22064 11.158 8.60218 11 9 11C9.39782 11 9.77936 11.158 10.0607 11.4393C10.342 11.7206 10.5 12.1022 10.5 12.5C10.5 12.8978 10.342 13.2794 10.0607 13.5607C9.77936 13.842 9.39782 14 9 14C8.60218 14 8.22064 13.842 7.93934 13.5607C7.65804 13.2794 7.5 12.8978 7.5 12.5ZM7.5 18.5C7.5 18.1022 7.65804 17.7206 7.93934 17.4393C8.22064 17.158 8.60218 17 9 17C9.39782 17 9.77936 17.158 10.0607 17.4393C10.342 17.7206 10.5 18.1022 10.5 18.5C10.5 18.8978 10.342 19.2794 10.0607 19.5607C9.77936 19.842 9.39782 20 9 20C8.60218 20 8.22064 19.842 7.93934 19.5607C7.65804 19.2794 7.5 18.8978 7.5 18.5Z" fill="#7A8699"/>
<path fill-rule="evenodd" clip-rule="evenodd" d="M14.5 6.5C14.5 6.10218 14.658 5.72064 14.9393 5.43934C15.2206 5.15804 15.6022 5 16 5C16.3978 5 16.7794 5.15804 17.0607 5.43934C17.342 5.72064 17.5 6.10218 17.5 6.5C17.5 6.89782 17.342 7.27936 17.0607 7.56066C16.7794 7.84196 16.3978 8 16 8C15.6022 8 15.2206 7.84196 14.9393 7.56066C14.658 7.27936 14.5 6.89782 14.5 6.5ZM14.5 12.5C14.5 12.1022 14.658 11.7206 14.9393 11.4393C15.2206 11.158 15.6022 11 16 11C16.3978 11 16.7794 11.158 17.0607 11.4393C17.342 11.7206 17.5 12.1022 17.5 12.5C17.5 12.8978 17.342 13.2794 17.0607 13.5607C16.7794 13.842 16.3978 14 16 14C15.6022 14 15.2206 13.842 14.9393 13.5607C14.658 13.2794 14.5 12.8978 14.5 12.5ZM14.5 18.5C14.5 18.1022 14.658 17.7206 14.9393 17.4393C15.2206 17.158 15.6022 17 16 17C16.3978 17 16.7794 17.158 17.0607 17.4393C17.342 17.7206 17.5 18.1022 17.5 18.5C17.5 18.8978 17.342 19.2794 17.0607 19.5607C16.7794 19.842 16.3978 20 16 20C15.6022 20 15.2206 19.842 14.9393 19.5607C14.658 19.2794 14.5 18.8978 14.5 18.5Z" fill="#7A8699"/>
</svg>
