<svg width="24" height="25" viewBox="0 0 24 25" fill="none" xmlns="http://www.w3.org/2000/svg">
<g clip-path="url(#clip0_4118_1892)">
<path d="M12 5.25316V11.9042L19.442 11.9032L17.72 10.1792C17.593 10.0522 17.5158 9.88382 17.5024 9.70471C17.489 9.5256 17.5403 9.34763 17.647 9.20316L17.72 9.11916C17.847 8.99215 18.0153 8.91492 18.1945 8.90152C18.3736 8.88812 18.5515 8.93945 18.696 9.04616L18.78 9.11916L21.777 12.1162C21.904 12.2432 21.9812 12.4115 21.9946 12.5906C22.008 12.7697 21.9567 12.9477 21.85 13.0922L21.777 13.1762L18.781 16.1802C18.6472 16.3135 18.468 16.3913 18.2792 16.3982C18.0904 16.4052 17.906 16.3406 17.7628 16.2174C17.6196 16.0943 17.5281 15.9216 17.5066 15.734C17.4852 15.5463 17.5353 15.3575 17.647 15.2052L17.719 15.1202L19.432 13.4032L12.001 13.4042L12 20.1492C12.0001 20.2587 11.9761 20.3669 11.9299 20.4662C11.8836 20.5655 11.8162 20.6534 11.7323 20.7239C11.6484 20.7943 11.5502 20.8455 11.4444 20.8739C11.3386 20.9023 11.2279 20.9071 11.12 20.8882L2.62 19.3862C2.44658 19.3556 2.28943 19.2651 2.17607 19.1303C2.06272 18.9956 2.00039 18.8252 2 18.6492V6.64916C2 6.4714 2.06314 6.29942 2.17816 6.16389C2.29318 6.02835 2.45261 5.93808 2.628 5.90916L11.128 4.51316C11.2354 4.49546 11.3453 4.50134 11.4502 4.53038C11.555 4.55942 11.6523 4.61093 11.7353 4.68133C11.8182 4.75174 11.8849 4.83935 11.9306 4.9381C11.9763 5.03684 12 5.14435 12 5.25316ZM8.502 12.3992C8.23625 12.3992 7.98139 12.5047 7.79348 12.6926C7.60557 12.8806 7.5 13.1354 7.5 13.4012C7.5 13.6669 7.60557 13.9218 7.79348 14.1097C7.98139 14.2976 8.23625 14.4032 8.502 14.4032C8.76775 14.4032 9.02261 14.2976 9.21052 14.1097C9.39843 13.9218 9.504 13.6669 9.504 13.4012C9.504 13.1354 9.39843 12.8806 9.21052 12.6926C9.02261 12.5047 8.76775 12.3992 8.502 12.3992Z" fill="#003E9C"/>
<path d="M13 19.4002H13.765L13.867 19.3942C14.0469 19.3695 14.2117 19.2804 14.3309 19.1433C14.4501 19.0063 14.5155 18.8308 14.515 18.6492L14.508 14.3992H13V19.4002ZM13.002 10.8992L13 9.62417V5.89917H13.745C13.9261 5.89914 14.1011 5.96464 14.2376 6.08356C14.3742 6.20248 14.4631 6.3668 14.488 6.54617L14.495 6.64817L14.502 10.8992H13.002Z" fill="#003E9C"/>
</g>
<defs>
<clipPath id="clip0_4118_1892">
<rect width="24" height="24" fill="white" transform="translate(0 0.89917)"/>
</clipPath>
</defs>
</svg>
