<svg width="25" height="24" viewBox="0 0 25 24" fill="none" xmlns="http://www.w3.org/2000/svg">
<path fill-rule="evenodd" clip-rule="evenodd" d="M15.5 3.75C15.5 3.55109 15.579 3.36032 15.7197 3.21967C15.8603 3.07902 16.0511 3 16.25 3H20.75C20.9489 3 21.1397 3.07902 21.2803 3.21967C21.421 3.36032 21.5 3.55109 21.5 3.75V8.25C21.5 8.44891 21.421 8.63968 21.2803 8.78033C21.1397 8.92098 20.9489 9 20.75 9C20.5511 9 20.3603 8.92098 20.2197 8.78033C20.079 8.63968 20 8.44891 20 8.25V5.56L16.03 9.53C15.9613 9.60369 15.8785 9.66279 15.7865 9.70378C15.6945 9.74477 15.5952 9.76682 15.4945 9.76859C15.3938 9.77037 15.2938 9.75184 15.2004 9.71412C15.107 9.6764 15.0222 9.62026 14.951 9.54904C14.8797 9.47782 14.8236 9.39299 14.7859 9.2996C14.7482 9.20621 14.7296 9.10618 14.7314 9.00548C14.7332 8.90478 14.7552 8.80546 14.7962 8.71346C14.8372 8.62146 14.8963 8.53866 14.97 8.47L18.94 4.5H16.25C16.0511 4.5 15.8603 4.42098 15.7197 4.28033C15.579 4.13968 15.5 3.94891 15.5 3.75ZM3.5 3.75C3.5 3.55109 3.57902 3.36032 3.71967 3.21967C3.86032 3.07902 4.05109 3 4.25 3H8.75C8.94891 3 9.13968 3.07902 9.28033 3.21967C9.42098 3.36032 9.5 3.55109 9.5 3.75C9.5 3.94891 9.42098 4.13968 9.28033 4.28033C9.13968 4.42098 8.94891 4.5 8.75 4.5H6.06L10.03 8.47C10.1625 8.61217 10.2346 8.80022 10.2312 8.99452C10.2277 9.18882 10.149 9.37421 10.0116 9.51162C9.87421 9.64903 9.68882 9.72775 9.49452 9.73118C9.30022 9.7346 9.11217 9.66248 8.97 9.53L5 5.56V8.25C5 8.44891 4.92098 8.63968 4.78033 8.78033C4.63968 8.92098 4.44891 9 4.25 9C4.05109 9 3.86032 8.92098 3.71967 8.78033C3.57902 8.63968 3.5 8.44891 3.5 8.25V3.75ZM14.97 15.53C14.8963 15.4613 14.8372 15.3785 14.7962 15.2865C14.7552 15.1945 14.7332 15.0952 14.7314 14.9945C14.7296 14.8938 14.7482 14.7938 14.7859 14.7004C14.8236 14.607 14.8797 14.5222 14.951 14.451C15.0222 14.3797 15.107 14.3236 15.2004 14.2859C15.2938 14.2482 15.3938 14.2296 15.4945 14.2314C15.5952 14.2332 15.6945 14.2552 15.7865 14.2962C15.8785 14.3372 15.9613 14.3963 16.03 14.47L20 18.44V15.75C20 15.5511 20.079 15.3603 20.2197 15.2197C20.3603 15.079 20.5511 15 20.75 15C20.9489 15 21.1397 15.079 21.2803 15.2197C21.421 15.3603 21.5 15.5511 21.5 15.75V20.25C21.5 20.4489 21.421 20.6397 21.2803 20.7803C21.1397 20.921 20.9489 21 20.75 21H16.25C16.0511 21 15.8603 20.921 15.7197 20.7803C15.579 20.6397 15.5 20.4489 15.5 20.25C15.5 20.0511 15.579 19.8603 15.7197 19.7197C15.8603 19.579 16.0511 19.5 16.25 19.5H18.94L14.97 15.53ZM10.03 14.47C10.1705 14.6106 10.2493 14.8012 10.2493 15C10.2493 15.1988 10.1705 15.3894 10.03 15.53L6.06 19.5H8.75C8.94891 19.5 9.13968 19.579 9.28033 19.7197C9.42098 19.8603 9.5 20.0511 9.5 20.25C9.5 20.4489 9.42098 20.6397 9.28033 20.7803C9.13968 20.921 8.94891 21 8.75 21H4.25C4.05109 21 3.86032 20.921 3.71967 20.7803C3.57902 20.6397 3.5 20.4489 3.5 20.25V15.75C3.5 15.5511 3.57902 15.3603 3.71967 15.2197C3.86032 15.079 4.05109 15 4.25 15C4.44891 15 4.63968 15.079 4.78033 15.2197C4.92098 15.3603 5 15.5511 5 15.75V18.44L8.97 14.47C9.11063 14.3295 9.30125 14.2507 9.5 14.2507C9.69875 14.2507 9.88937 14.3295 10.03 14.47Z" fill="#091E42"/>
</svg>
