<svg width="24" height="25" viewBox="0 0 24 25" fill="none" xmlns="http://www.w3.org/2000/svg">
<path d="M21 18.6492C21 19.5111 20.6576 20.3378 20.0481 20.9473C19.4386 21.5568 18.612 21.8992 17.75 21.8992H6.25C5.38805 21.8992 4.5614 21.5568 3.9519 20.9473C3.34241 20.3378 3 19.5111 3 18.6492V7.14917C3 6.28722 3.34241 5.46057 3.9519 4.85107C4.5614 4.24158 5.38805 3.89917 6.25 3.89917H17.75C18.612 3.89917 19.4386 4.24158 20.0481 4.85107C20.6576 5.46057 21 6.28722 21 7.14917V18.6492ZM17 8.64917C17 8.46793 16.9344 8.29283 16.8152 8.15624C16.6961 8.01965 16.5316 7.93082 16.352 7.90617L16.25 7.89917H7.75L7.648 7.90617C7.46849 7.93087 7.30399 8.01972 7.18491 8.15631C7.06583 8.29289 7.00023 8.46797 7.00023 8.64917C7.00023 8.83037 7.06583 9.00545 7.18491 9.14203C7.30399 9.27862 7.46849 9.36747 7.648 9.39217L7.75 9.39917H16.25L16.352 9.39217C16.5316 9.36752 16.6961 9.27869 16.8152 9.1421C16.9344 9.00551 17 8.83041 17 8.64917ZM17 17.1492C17 16.9679 16.9344 16.7928 16.8152 16.6562C16.6961 16.5197 16.5316 16.4308 16.352 16.4062L16.25 16.3992H7.75L7.648 16.4062C7.46849 16.4309 7.30399 16.5197 7.18491 16.6563C7.06583 16.7929 7.00023 16.968 7.00023 17.1492C7.00023 17.3304 7.06583 17.5054 7.18491 17.642C7.30399 17.7786 7.46849 17.8675 7.648 17.8922L7.75 17.8992H16.25L16.352 17.8922C16.5316 17.8675 16.6961 17.7787 16.8152 17.6421C16.9344 17.5055 17 17.3304 17 17.1492ZM17 12.8992C17 12.7179 16.9344 12.5428 16.8152 12.4062C16.6961 12.2697 16.5316 12.1808 16.352 12.1562L16.25 12.1492H7.75L7.648 12.1562C7.46849 12.1809 7.30399 12.2697 7.18491 12.4063C7.06583 12.5429 7.00023 12.718 7.00023 12.8992C7.00023 13.0804 7.06583 13.2554 7.18491 13.392C7.30399 13.5286 7.46849 13.6175 7.648 13.6422L7.75 13.6492H16.25L16.352 13.6422C16.5316 13.6175 16.6961 13.5287 16.8152 13.3921C16.9344 13.2555 17 13.0804 17 12.8992Z" fill="#003E9C"/>
</svg>
