<svg width="24" height="25" viewBox="0 0 24 25" fill="none" xmlns="http://www.w3.org/2000/svg">
<path fill-rule="evenodd" clip-rule="evenodd" d="M11.0303 4.86912C11.1708 5.00975 11.2497 5.20037 11.2497 5.39912C11.2497 5.59787 11.1708 5.7885 11.0303 5.92912L4.81032 12.1491H21.0003C21.1992 12.1491 21.39 12.2281 21.5306 12.3688C21.6713 12.5094 21.7503 12.7002 21.7503 12.8991C21.7503 13.098 21.6713 13.2888 21.5306 13.4295C21.39 13.5701 21.1992 13.6491 21.0003 13.6491H4.81032L11.0303 19.8691C11.104 19.9378 11.1631 20.0206 11.2041 20.1126C11.2451 20.2046 11.2671 20.3039 11.2689 20.4046C11.2707 20.5053 11.2522 20.6053 11.2144 20.6987C11.1767 20.7921 11.1206 20.8769 11.0494 20.9482C10.9781 21.0194 10.8933 21.0755 10.7999 21.1132C10.7065 21.151 10.6065 21.1695 10.5058 21.1677C10.4051 21.1659 10.3058 21.1439 10.2138 21.1029C10.1218 21.0619 10.039 21.0028 9.97032 20.9291L2.47032 13.4291C2.32987 13.2885 2.25098 13.0979 2.25098 12.8991C2.25098 12.7004 2.32987 12.5097 2.47032 12.3691L9.97032 4.86912C10.1109 4.72867 10.3016 4.64978 10.5003 4.64978C10.6991 4.64978 10.8897 4.72867 11.0303 4.86912Z" fill="#091E42"/>
</svg>
