<svg width="24" height="25" viewBox="0 0 24 25" fill="none" xmlns="http://www.w3.org/2000/svg">
<g clip-path="url(#clip0_4118_1814)">
<path d="M3 12.2992C3 13.1828 3.71634 13.8992 4.6 13.8992H9.4C10.2837 13.8992 11 13.1828 11 12.2992V5.49917C11 4.61551 10.2837 3.89917 9.4 3.89917H4.6C3.71634 3.89917 3 4.61551 3 5.49917V12.2992ZM3 20.2992C3 21.1828 3.71634 21.8992 4.6 21.8992H9.4C10.2837 21.8992 11 21.1828 11 20.2992V17.4992C11 16.6155 10.2837 15.8992 9.4 15.8992H4.6C3.71634 15.8992 3 16.6155 3 17.4992V20.2992ZM13 20.2992C13 21.1828 13.7163 21.8992 14.6 21.8992H19.4C20.2837 21.8992 21 21.1828 21 20.2992V13.4992C21 12.6155 20.2837 11.8992 19.4 11.8992H14.6C13.7163 11.8992 13 12.6155 13 13.4992V20.2992ZM14.6 3.89917C13.7163 3.89917 13 4.61551 13 5.49917V8.29917C13 9.18283 13.7163 9.89917 14.6 9.89917H19.4C20.2837 9.89917 21 9.18283 21 8.29917V5.49917C21 4.61551 20.2837 3.89917 19.4 3.89917H14.6Z" fill="#003E9C"/>
</g>
<defs>
<clipPath id="clip0_4118_1814">
<rect width="24" height="24" fill="white" transform="translate(0 0.89917)"/>
</clipPath>
</defs>
</svg>
