<svg width="24" height="24" viewBox="0 0 24 24" fill="none" xmlns="http://www.w3.org/2000/svg">
<g id="Frame">
<rect width="24" height="24" rx="4" fill="#96C0FF"/>
<path id="Vector" d="M4.25 4C3.65326 4 3.08097 4.23705 2.65901 4.65901C2.23705 5.08097 2 5.65326 2 6.25V8.75C2 9.34674 2.23705 9.91903 2.65901 10.341C3.08097 10.7629 3.65326 11 4.25 11H6.75C7.34674 11 7.91903 10.7629 8.34099 10.341C8.76295 9.91903 9 9.34674 9 8.75V6.25C9 5.65326 8.76295 5.08097 8.34099 4.65901C7.91903 4.23705 7.34674 4 6.75 4H4.25ZM11.25 5C11.0511 5 10.8603 5.07902 10.7197 5.21967C10.579 5.36032 10.5 5.55109 10.5 5.75C10.5 5.94891 10.579 6.13968 10.7197 6.28033C10.8603 6.42098 11.0511 6.5 11.25 6.5H21.25C21.4489 6.5 21.6397 6.42098 21.7803 6.28033C21.921 6.13968 22 5.94891 22 5.75C22 5.55109 21.921 5.36032 21.7803 5.21967C21.6397 5.07902 21.4489 5 21.25 5H11.25ZM11.25 8C11.0511 8 10.8603 8.07902 10.7197 8.21967C10.579 8.36032 10.5 8.55109 10.5 8.75C10.5 8.94891 10.579 9.13968 10.7197 9.28033C10.8603 9.42098 11.0511 9.5 11.25 9.5H18.25C18.4489 9.5 18.6397 9.42098 18.7803 9.28033C18.921 9.13968 19 8.94891 19 8.75C19 8.55109 18.921 8.36032 18.7803 8.21967C18.6397 8.07902 18.4489 8 18.25 8H11.25ZM4.25 13C3.65326 13 3.08097 13.2371 2.65901 13.659C2.23705 14.081 2 14.6533 2 15.25V17.75C2 18.0455 2.0582 18.3381 2.17127 18.611C2.28434 18.884 2.45008 19.1321 2.65901 19.341C2.86794 19.5499 3.11598 19.7157 3.38896 19.8287C3.66194 19.9418 3.95453 20 4.25 20H6.75C7.04547 20 7.33806 19.9418 7.61104 19.8287C7.88402 19.7157 8.13206 19.5499 8.34099 19.341C8.54992 19.1321 8.71566 18.884 8.82873 18.611C8.9418 18.3381 9 18.0455 9 17.75V15.25C9 14.6533 8.76295 14.081 8.34099 13.659C7.91903 13.2371 7.34674 13 6.75 13H4.25ZM11.25 14C11.0511 14 10.8603 14.079 10.7197 14.2197C10.579 14.3603 10.5 14.5511 10.5 14.75C10.5 14.9489 10.579 15.1397 10.7197 15.2803C10.8603 15.421 11.0511 15.5 11.25 15.5H21.25C21.4489 15.5 21.6397 15.421 21.7803 15.2803C21.921 15.1397 22 14.9489 22 14.75C22 14.5511 21.921 14.3603 21.7803 14.2197C21.6397 14.079 21.4489 14 21.25 14H11.25ZM11.25 17C11.0511 17 10.8603 17.079 10.7197 17.2197C10.579 17.3603 10.5 17.5511 10.5 17.75C10.5 17.9489 10.579 18.1397 10.7197 18.2803C10.8603 18.421 11.0511 18.5 11.25 18.5H18.25C18.4489 18.5 18.6397 18.421 18.7803 18.2803C18.921 18.1397 19 17.9489 19 17.75C19 17.5511 18.921 17.3603 18.7803 17.2197C18.6397 17.079 18.4489 17 18.25 17H11.25Z" fill="#003E9C"/>
</g>
</svg>
