<svg width="30" height="29" viewBox="0 0 30 29" fill="none" xmlns="http://www.w3.org/2000/svg">
<g id="Frame">
<path id="Vector" fill-rule="evenodd" clip-rule="evenodd" d="M14.8555 2.6936C8.40903 2.6936 3.18359 7.91904 3.18359 14.3655C3.18359 20.812 8.40903 26.0375 14.8555 26.0375C21.302 26.0375 26.5275 20.812 26.5275 14.3655C26.5275 7.91904 21.302 2.6936 14.8555 2.6936ZM9.73185 13.7311C9.56371 13.8994 9.46927 14.1276 9.46927 14.3655C9.46927 14.6035 9.56371 14.8317 9.73185 15L13.3232 18.5914C13.4054 18.6796 13.5045 18.7503 13.6147 18.7994C13.7248 18.8485 13.8437 18.8749 13.9642 18.877C14.0848 18.8791 14.2045 18.857 14.3163 18.8118C14.4281 18.7666 14.5297 18.6994 14.615 18.6142C14.7002 18.5289 14.7674 18.4274 14.8126 18.3156C14.8577 18.2038 14.8799 18.084 14.8778 17.9635C14.8757 17.8429 14.8493 17.724 14.8002 17.6139C14.7511 17.5037 14.6804 17.4046 14.5922 17.3224L12.5331 15.2634H19.3447C19.5829 15.2634 19.8112 15.1688 19.9796 15.0004C20.148 14.832 20.2426 14.6037 20.2426 14.3655C20.2426 14.1274 20.148 13.899 19.9796 13.7307C19.8112 13.5623 19.5829 13.4677 19.3447 13.4677H12.5331L14.5922 11.4086C14.7508 11.2384 14.8371 11.0133 14.833 10.7807C14.8289 10.5481 14.7347 10.3262 14.5702 10.1617C14.4057 9.9972 14.1837 9.90297 13.9511 9.89887C13.7185 9.89476 13.4934 9.9811 13.3232 10.1397L9.73185 13.7311Z" fill="#091E42"/>
</g>
</svg>
