<svg width="30" height="29" viewBox="0 0 30 29" fill="none" xmlns="http://www.w3.org/2000/svg">
<g id="Frame">
<path id="Vector" fill-rule="evenodd" clip-rule="evenodd" d="M15.1346 2.6936C8.68808 2.6936 3.46265 7.91904 3.46265 14.3655C3.46265 20.812 8.68808 26.0375 15.1346 26.0375C21.5811 26.0375 26.8065 20.812 26.8065 14.3655C26.8065 7.91904 21.5811 2.6936 15.1346 2.6936ZM20.2583 15C20.4264 14.8317 20.5208 14.6035 20.5208 14.3655C20.5208 14.1276 20.4264 13.8994 20.2583 13.7311L16.6669 10.1397C16.5847 10.0515 16.4856 9.98073 16.3754 9.93166C16.2653 9.88259 16.1464 9.8562 16.0259 9.85408C15.9053 9.85195 15.7856 9.87413 15.6738 9.91928C15.562 9.96444 15.4604 10.0317 15.3752 10.1169C15.2899 10.2022 15.2227 10.3037 15.1775 10.4155C15.1324 10.5273 15.1102 10.6471 15.1123 10.7676C15.1145 10.8882 15.1408 11.0071 15.1899 11.1172C15.239 11.2273 15.3097 11.3265 15.3979 11.4086L17.457 13.4677H10.6454C10.4073 13.4677 10.1789 13.5623 10.0105 13.7307C9.84213 13.899 9.74753 14.1274 9.74753 14.3655C9.74753 14.6037 9.84213 14.832 10.0105 15.0004C10.1789 15.1688 10.4073 15.2634 10.6454 15.2634H17.457L15.3979 17.3224C15.3097 17.4046 15.239 17.5037 15.1899 17.6139C15.1408 17.724 15.1145 17.8429 15.1123 17.9635C15.1102 18.084 15.1324 18.2038 15.1775 18.3156C15.2227 18.4274 15.2899 18.5289 15.3752 18.6142C15.4604 18.6994 15.562 18.7666 15.6738 18.8118C15.7856 18.857 15.9053 18.8791 16.0259 18.877C16.1464 18.8749 16.2653 18.8485 16.3754 18.7994C16.4856 18.7503 16.5847 18.6796 16.6669 18.5914L20.2583 15Z" fill="#091E42"/>
</g>
</svg>
