<svg width="273" height="59" viewBox="0 0 273 59" fill="none" xmlns="http://www.w3.org/2000/svg">
<rect x="0.5" y="1.18555" width="272" height="57" rx="7.5" fill="#F6F6F6" stroke="#003E9C"/>
<path d="M13.5 22.3555V30.9355C13.5 31.7311 13.8161 32.4942 14.3787 33.0568C14.9413 33.6194 15.7044 33.9355 16.5 33.9355H31.5C32.2956 33.9355 33.0587 33.6194 33.6213 33.0568C34.1839 32.4942 34.5 31.7311 34.5 30.9355V22.3555L25.572 27.8485C25.0992 28.1393 24.5551 28.2933 24 28.2933C23.4449 28.2933 22.9008 28.1393 22.428 27.8485L13.5 22.3555Z" fill="#091E42"/>
<path d="M34.5 20.5935V20.4355C34.5 19.6399 34.1839 18.8768 33.6213 18.3142C33.0587 17.7516 32.2956 17.4355 31.5 17.4355H16.5C15.7044 17.4355 14.9413 17.7516 14.3787 18.3142C13.8161 18.8768 13.5 19.6399 13.5 20.4355V20.5935L23.214 26.5715C23.4504 26.717 23.7225 26.794 24 26.794C24.2775 26.794 24.5496 26.717 24.786 26.5715L34.5 20.5935Z" fill="#091E42"/>
</svg>
