<svg width="24" height="25" viewBox="0 0 24 25" fill="none" xmlns="http://www.w3.org/2000/svg">
<path d="M13.75 2.89917H10.25C9.69656 2.89919 9.16255 3.10318 8.75004 3.47214C8.33754 3.84111 8.07549 4.34916 8.014 4.89917H6.25C5.65326 4.89917 5.08097 5.13622 4.65901 5.55818C4.23705 5.98014 4 6.55243 4 7.14917V20.6492C4 21.2459 4.23705 21.8182 4.65901 22.2402C5.08097 22.6621 5.65326 22.8992 6.25 22.8992H17.75C18.0455 22.8992 18.3381 22.841 18.611 22.7279C18.884 22.6148 19.1321 22.4491 19.341 22.2402C19.5499 22.0312 19.7157 21.7832 19.8287 21.5102C19.9418 21.2372 20 20.9446 20 20.6492V7.14917C20 6.8537 19.9418 6.56111 19.8287 6.28813C19.7157 6.01515 19.5499 5.76711 19.341 5.55818C19.1321 5.34925 18.884 5.18351 18.611 5.07044C18.3381 4.95737 18.0455 4.89917 17.75 4.89917H15.986C15.9245 4.34916 15.6625 3.84111 15.25 3.47214C14.8375 3.10318 14.3034 2.89919 13.75 2.89917ZM10.25 4.39917H13.75C13.9489 4.39917 14.1397 4.47819 14.2803 4.61884C14.421 4.75949 14.5 4.95026 14.5 5.14917C14.5 5.34808 14.421 5.53885 14.2803 5.6795C14.1397 5.82015 13.9489 5.89917 13.75 5.89917H10.25C10.0511 5.89917 9.86032 5.82015 9.71967 5.6795C9.57902 5.53885 9.5 5.34808 9.5 5.14917C9.5 4.95026 9.57902 4.75949 9.71967 4.61884C9.86032 4.47819 10.0511 4.39917 10.25 4.39917ZM12.5 11.1492C12.5 10.9503 12.579 10.7595 12.7197 10.6188C12.8603 10.4782 13.0511 10.3992 13.25 10.3992H16.75C16.9489 10.3992 17.1397 10.4782 17.2803 10.6188C17.421 10.7595 17.5 10.9503 17.5 11.1492C17.5 11.3481 17.421 11.5388 17.2803 11.6795C17.1397 11.8202 16.9489 11.8992 16.75 11.8992H13.25C13.0511 11.8992 12.8603 11.8202 12.7197 11.6795C12.579 11.5388 12.5 11.3481 12.5 11.1492ZM13.25 15.8992H16.75C16.9489 15.8992 17.1397 15.9782 17.2803 16.1188C17.421 16.2595 17.5 16.4503 17.5 16.6492C17.5 16.8481 17.421 17.0388 17.2803 17.1795C17.1397 17.3202 16.9489 17.3992 16.75 17.3992H13.25C13.0511 17.3992 12.8603 17.3202 12.7197 17.1795C12.579 17.0388 12.5 16.8481 12.5 16.6492C12.5 16.4503 12.579 16.2595 12.7197 16.1188C12.8603 15.9782 13.0511 15.8992 13.25 15.8992ZM10.78 10.6792L8.78 12.6792C8.63937 12.8196 8.44875 12.8985 8.25 12.8985C8.05125 12.8985 7.86063 12.8196 7.72 12.6792L6.72 11.6792C6.64631 11.6105 6.58721 11.5277 6.54622 11.4357C6.50523 11.3437 6.48319 11.2444 6.48141 11.1437C6.47963 11.043 6.49816 10.943 6.53588 10.8496C6.5736 10.7562 6.62974 10.6714 6.70096 10.6001C6.77218 10.5289 6.85701 10.4728 6.9504 10.435C7.04379 10.3973 7.14382 10.3788 7.24452 10.3806C7.34523 10.3824 7.44454 10.4044 7.53654 10.4454C7.62854 10.4864 7.71134 10.5455 7.78 10.6192L8.25 11.0892L9.72 9.61917C9.78866 9.54548 9.87146 9.48638 9.96346 9.44539C10.0555 9.4044 10.1548 9.38235 10.2555 9.38058C10.3562 9.3788 10.4562 9.39733 10.5496 9.43505C10.643 9.47277 10.7278 9.52891 10.799 9.60013C10.8703 9.67135 10.9264 9.75618 10.9641 9.84957C11.0018 9.94296 11.0204 10.043 11.0186 10.1437C11.0168 10.2444 10.9948 10.3437 10.9538 10.4357C10.9128 10.5277 10.8537 10.6105 10.78 10.6792ZM10.78 15.1192C10.9205 15.2598 10.9993 15.4504 10.9993 15.6492C10.9993 15.8479 10.9205 16.0385 10.78 16.1792L8.78 18.1792C8.63937 18.3196 8.44875 18.3985 8.25 18.3985C8.05125 18.3985 7.86063 18.3196 7.72 18.1792L6.72 17.1792C6.64631 17.1105 6.58721 17.0277 6.54622 16.9357C6.50523 16.8437 6.48319 16.7444 6.48141 16.6437C6.47963 16.543 6.49816 16.443 6.53588 16.3496C6.5736 16.2562 6.62974 16.1714 6.70096 16.1001C6.77218 16.0289 6.85701 15.9728 6.9504 15.935C7.04379 15.8973 7.14382 15.8788 7.24452 15.8806C7.34523 15.8824 7.44454 15.9044 7.53654 15.9454C7.62854 15.9864 7.71134 16.0455 7.78 16.1192L8.25 16.5892L9.72 15.1192C9.86063 14.9787 10.0512 14.8998 10.25 14.8998C10.4488 14.8998 10.6394 14.9787 10.78 15.1192Z" fill="#003E9C"/>
</svg>
