<svg width="24" height="24" viewBox="0 0 24 24" fill="none" xmlns="http://www.w3.org/2000/svg">
<path d="M12 15C12.7956 15 13.5587 14.6839 14.1213 14.1213C14.6839 13.5587 15 12.7956 15 12C15 11.2044 14.6839 10.4413 14.1213 9.87868C13.5587 9.31607 12.7956 9 12 9C11.2044 9 10.4413 9.31607 9.87868 9.87868C9.31607 10.4413 9 11.2044 9 12C9 12.7956 9.31607 13.5587 9.87868 14.1213C10.4413 14.6839 11.2044 15 12 15Z" fill="#091E42"/>
<path fill-rule="evenodd" clip-rule="evenodd" d="M1.32308 11.447C2.81108 6.976 7.02808 3.75 12.0011 3.75C16.9711 3.75 21.1861 6.973 22.6761 11.44C22.7961 11.802 22.7961 12.192 22.6761 12.553C21.1891 17.024 16.9711 20.25 11.9991 20.25C7.02908 20.25 2.81308 17.027 1.32408 12.56C1.20382 12.1987 1.20382 11.8083 1.32408 11.447H1.32308ZM17.2501 12C17.2501 13.3924 16.697 14.7277 15.7124 15.7123C14.7278 16.6969 13.3925 17.25 12.0001 17.25C10.6077 17.25 9.27233 16.6969 8.28777 15.7123C7.3032 14.7277 6.75008 13.3924 6.75008 12C6.75008 10.6076 7.3032 9.27225 8.28777 8.28769C9.27233 7.30312 10.6077 6.75 12.0001 6.75C13.3925 6.75 14.7278 7.30312 15.7124 8.28769C16.697 9.27225 17.2501 10.6076 17.2501 12Z" fill="#091E42"/>
</svg>
