<svg width="44" height="45" viewBox="0 0 44 45" fill="none" xmlns="http://www.w3.org/2000/svg">
<g id="Frame">
<path id="Vector" fill-rule="evenodd" clip-rule="evenodd" d="M21.9998 4.625C12.1273 4.625 4.12476 12.6274 4.12476 22.4997C4.12476 32.372 12.1273 40.3744 21.9998 40.3744C31.8723 40.3744 39.8748 32.372 39.8748 22.4997C39.8748 12.6274 31.8723 4.625 21.9998 4.625ZM29.8464 23.4713C30.1039 23.2135 30.2485 22.8641 30.2485 22.4997C30.2485 22.1353 30.1039 21.7859 29.8464 21.528L24.3464 16.0281C24.2205 15.8931 24.0687 15.7847 23.9001 15.7095C23.7314 15.6344 23.5493 15.594 23.3647 15.5907C23.1801 15.5875 22.9967 15.6214 22.8255 15.6906C22.6543 15.7597 22.4988 15.8627 22.3682 15.9932C22.2376 16.1238 22.1347 16.2793 22.0655 16.4505C21.9964 16.6217 21.9624 16.8051 21.9657 16.9897C21.9689 17.1744 22.0093 17.3564 22.0845 17.5251C22.1596 17.6938 22.268 17.8456 22.4031 17.9714L25.5564 21.1247H15.1248C14.7601 21.1247 14.4103 21.2696 14.1525 21.5274C13.8946 21.7853 13.7498 22.135 13.7498 22.4997C13.7498 22.8644 13.8946 23.2141 14.1525 23.472C14.4103 23.7298 14.7601 23.8747 15.1248 23.8747H25.5564L22.4031 27.028C22.268 27.1538 22.1596 27.3056 22.0845 27.4743C22.0093 27.643 21.9689 27.825 21.9657 28.0096C21.9624 28.1943 21.9964 28.3776 22.0655 28.5489C22.1347 28.7201 22.2376 28.8756 22.3682 29.0062C22.4988 29.1367 22.6543 29.2397 22.8255 29.3088C22.9967 29.378 23.1801 29.4119 23.3647 29.4087C23.5493 29.4054 23.7314 29.365 23.9001 29.2898C24.0687 29.2147 24.2205 29.1063 24.3464 28.9713L29.8464 23.4713Z" fill="#B3B9C4"/>
</g>
</svg>
