<svg width="25" height="25" viewBox="0 0 25 25" fill="none" xmlns="http://www.w3.org/2000/svg">
<path fill-rule="evenodd" clip-rule="evenodd" d="M12.4581 8.61912C12.5988 8.47867 12.7894 8.39978 12.9881 8.39978C13.1869 8.39978 13.3775 8.47867 13.5181 8.61912L21.0181 16.1191C21.0918 16.1878 21.1509 16.2706 21.1919 16.3626C21.2329 16.4546 21.2549 16.5539 21.2567 16.6546C21.2585 16.7553 21.24 16.8553 21.2023 16.9487C21.1645 17.0421 21.1084 17.1269 21.0372 17.1982C20.9659 17.2694 20.8811 17.3255 20.7877 17.3632C20.6943 17.401 20.5943 17.4195 20.4936 17.4177C20.3929 17.4159 20.2936 17.3939 20.2016 17.3529C20.1096 17.3119 20.0268 17.2528 19.9581 17.1791L12.9881 10.2091L6.01813 17.1791C5.87595 17.3116 5.68791 17.3837 5.49361 17.3803C5.2993 17.3769 5.11392 17.2982 4.97651 17.1607C4.83909 17.0233 4.76038 16.8379 4.75695 16.6436C4.75352 16.4493 4.82565 16.2613 4.95813 16.1191L12.4581 8.61912Z" fill="#0047B3"/>
</svg>
